<svg xmlns="http://www.w3.org/2000/svg" xmlns:xlink="http://www.w3.org/1999/xlink" width="1080" zoomAndPan="magnify" viewBox="0 0 810 809.999993" height="1080" preserveAspectRatio="xMidYMid meet" version="1.0"><defs><clipPath id="50c17c5f5e"><path d="M 117.867188 198 L 225.875 198 L 225.875 611.878906 L 117.867188 611.878906 Z M 117.867188 198 " clip-rule="nonzero"/></clipPath><clipPath id="4c51183c67"><path d="M 583.210938 197.980469 L 692.367188 197.980469 L 692.367188 611.878906 L 583.210938 611.878906 Z M 583.210938 197.980469 " clip-rule="nonzero"/></clipPath></defs><path fill="#000000" d="M 318.8125 505.777344 C 315.3125 505.777344 311.808594 504.445312 309.140625 501.777344 C 283.503906 476.160156 269.382812 442.105469 269.382812 405.875 C 269.382812 369.648438 283.503906 335.589844 309.140625 309.972656 C 314.480469 304.632812 323.144531 304.632812 328.480469 309.972656 C 333.824219 315.308594 333.824219 323.964844 328.484375 329.300781 C 308.011719 349.753906 296.738281 376.949219 296.738281 405.875 C 296.738281 434.796875 308.011719 461.992188 328.484375 482.445312 C 333.824219 487.785156 333.824219 496.4375 328.484375 501.777344 C 325.8125 504.445312 322.308594 505.777344 318.8125 505.777344 " fill-opacity="1" fill-rule="nonzero"/><path fill="#000000" d="M 492.371094 504.820312 C 488.921875 504.820312 485.472656 503.523438 482.808594 500.921875 C 477.40625 495.644531 477.3125 486.992188 482.59375 481.59375 C 502.523438 461.242188 513.492188 434.351562 513.492188 405.875 C 513.492188 376.496094 501.917969 349.007812 480.898438 328.457031 C 475.496094 323.179688 475.402344 314.527344 480.6875 309.132812 C 485.964844 303.738281 494.621094 303.640625 500.027344 308.917969 C 526.355469 334.652344 540.851562 369.085938 540.851562 405.875 C 540.851562 441.539062 527.109375 475.21875 502.148438 500.707031 C 499.472656 503.445312 495.925781 504.820312 492.371094 504.820312 " fill-opacity="1" fill-rule="nonzero"/><path fill="#000000" d="M 282.148438 540.507812 C 278.609375 540.507812 275.078125 539.144531 272.398438 536.425781 C 237.882812 501.398438 218.875 455.035156 218.875 405.875 C 218.875 356.167969 238.246094 309.4375 273.425781 274.289062 C 278.773438 268.949219 287.429688 268.953125 292.769531 274.289062 C 298.113281 279.628906 298.113281 288.277344 292.769531 293.621094 C 262.761719 323.605469 246.230469 363.46875 246.230469 405.875 C 246.230469 447.8125 262.453125 487.367188 291.894531 517.25 C 297.191406 522.628906 297.128906 531.28125 291.742188 536.578125 C 289.082031 539.199219 285.613281 540.507812 282.148438 540.507812 " fill-opacity="1" fill-rule="nonzero"/><path fill="#000000" d="M 528.097656 540.5 C 524.625 540.5 521.160156 539.195312 518.5 536.570312 C 513.113281 531.277344 513.046875 522.621094 518.347656 517.242188 C 547.785156 487.359375 563.996094 447.808594 563.996094 405.875 C 563.996094 363.003906 547.164062 322.828125 516.582031 292.75 C 511.203125 287.453125 511.136719 278.796875 516.4375 273.421875 C 521.730469 268.039062 530.394531 267.976562 535.78125 273.269531 C 571.617188 308.527344 591.359375 355.621094 591.359375 405.875 C 591.359375 455.027344 572.351562 501.390625 537.839844 536.417969 C 535.164062 539.136719 531.628906 540.5 528.097656 540.5 " fill-opacity="1" fill-rule="nonzero"/><path fill="#000000" d="M 246.441406 576.203125 C 242.914062 576.203125 239.386719 574.84375 236.710938 572.136719 C 192.640625 527.574219 168.375 468.527344 168.375 405.875 C 168.375 342.691406 192.996094 283.28125 237.714844 238.605469 C 243.054688 233.269531 251.710938 233.269531 257.058594 238.605469 C 262.398438 243.941406 262.398438 252.59375 257.058594 257.933594 C 217.507812 297.449219 195.730469 349.988281 195.730469 405.875 C 195.730469 461.289062 217.199219 513.515625 256.171875 552.925781 C 261.484375 558.292969 261.429688 566.949219 256.058594 572.253906 C 253.390625 574.886719 249.917969 576.203125 246.441406 576.203125 " fill-opacity="1" fill-rule="nonzero"/><path fill="#000000" d="M 563.800781 576.191406 C 560.328125 576.191406 556.851562 574.878906 554.1875 572.246094 C 548.8125 566.941406 548.761719 558.285156 554.070312 552.917969 C 593.042969 513.503906 614.503906 461.285156 614.503906 405.875 C 614.503906 349.523438 592.410156 296.664062 552.285156 257.046875 C 546.910156 251.742188 546.863281 243.085938 552.171875 237.71875 C 557.476562 232.34375 566.140625 232.300781 571.511719 237.605469 C 616.878906 282.398438 641.859375 342.15625 641.859375 405.875 C 641.859375 468.523438 617.597656 527.570312 573.53125 572.128906 C 570.855469 574.832031 567.328125 576.191406 563.800781 576.191406 " fill-opacity="1" fill-rule="nonzero"/><g clip-path="url(#50c17c5f5e)"><path fill="#000000" d="M 210.710938 611.867188 C 207.191406 611.867188 203.667969 610.519531 200.996094 607.820312 C 147.386719 553.730469 117.867188 482.007812 117.867188 405.875 C 117.867188 329.210938 147.746094 257.132812 202 202.921875 C 207.339844 197.585938 216.003906 197.585938 221.34375 202.921875 C 226.6875 208.257812 226.6875 216.910156 221.34375 222.25 C 172.257812 271.296875 145.222656 336.511719 145.222656 405.875 C 145.222656 474.757812 171.933594 539.648438 220.433594 588.585938 C 225.753906 593.949219 225.707031 602.601562 220.339844 607.914062 C 217.671875 610.554688 214.195312 611.867188 210.710938 611.867188 " fill-opacity="1" fill-rule="nonzero"/></g><g clip-path="url(#4c51183c67)"><path fill="#000000" d="M 599.515625 611.878906 C 596.035156 611.878906 592.558594 610.558594 589.890625 607.917969 C 584.523438 602.609375 584.476562 593.953125 589.796875 588.589844 C 638.296875 539.648438 665.011719 474.757812 665.011719 405.875 C 665.011719 336.035156 637.660156 270.503906 587.992188 221.351562 C 582.625 216.042969 582.582031 207.386719 587.898438 202.027344 C 593.210938 196.664062 601.875 196.621094 607.242188 201.933594 C 662.132812 256.257812 692.367188 328.6875 692.367188 405.875 C 692.367188 482.007812 662.84375 553.730469 609.234375 607.824219 C 606.558594 610.523438 603.035156 611.878906 599.515625 611.878906 " fill-opacity="1" fill-rule="nonzero"/></g><path fill="#000000" d="M 463.558594 406.820312 C 463.558594 439.335938 437.175781 465.699219 404.636719 465.699219 C 372.097656 465.699219 345.714844 439.335938 345.714844 406.820312 C 345.714844 374.304688 372.097656 347.941406 404.636719 347.941406 C 437.175781 347.941406 463.558594 374.304688 463.558594 406.820312 " fill-opacity="1" fill-rule="nonzero"/></svg>