<svg xmlns="http://www.w3.org/2000/svg" xmlns:xlink="http://www.w3.org/1999/xlink" width="1080" zoomAndPan="magnify" viewBox="0 0 810 809.999993" height="1080" preserveAspectRatio="xMidYMid meet" version="1.0"><defs><clipPath id="2c234dc01c"><path d="M 127.164062 127.082031 L 226 127.082031 L 226 226 L 127.164062 226 Z M 127.164062 127.082031 " clip-rule="nonzero"/></clipPath><clipPath id="3de3c241d4"><path d="M 298 469 L 455 469 L 455 682.832031 L 298 682.832031 Z M 298 469 " clip-rule="nonzero"/></clipPath><clipPath id="3fbe685646"><path d="M 469 298 L 682.914062 298 L 682.914062 455 L 469 455 Z M 469 298 " clip-rule="nonzero"/></clipPath></defs><g clip-path="url(#2c234dc01c)"><path fill="#000000" d="M 138.425781 213.796875 C 138.464844 213.941406 138.503906 214.097656 138.53125 214.246094 C 138.929688 215.835938 139.324219 217.441406 139.75 219.046875 C 139.828125 219.351562 139.894531 219.65625 139.976562 219.960938 C 140.453125 221.789062 140.957031 223.644531 141.460938 225.515625 C 162.289062 221.417969 181.140625 211.367188 196.292969 196.214844 C 211.433594 181.058594 221.496094 162.210938 225.589844 141.382812 C 225.539062 141.371094 225.484375 141.355469 225.433594 141.34375 C 225.367188 141.328125 225.3125 141.316406 225.246094 141.289062 C 223.550781 140.824219 221.867188 140.375 220.195312 139.9375 C 219.71875 139.816406 219.253906 139.699219 218.777344 139.578125 C 217.464844 139.234375 216.152344 138.902344 214.851562 138.582031 C 214.402344 138.480469 213.9375 138.359375 213.488281 138.253906 C 210.082031 137.417969 206.738281 136.648438 203.464844 135.945312 C 203.054688 135.855469 202.644531 135.761719 202.230469 135.683594 C 200.972656 135.402344 199.726562 135.152344 198.507812 134.898438 C 198.070312 134.808594 197.632812 134.710938 197.195312 134.632812 C 195.734375 134.34375 194.304688 134.050781 192.871094 133.785156 C 192.753906 133.757812 192.632812 133.734375 192.515625 133.707031 C 190.9375 133.414062 189.386719 133.136719 187.847656 132.855469 C 187.503906 132.804688 187.171875 132.738281 186.828125 132.683594 C 185.632812 132.472656 184.453125 132.273438 183.289062 132.074219 C 182.890625 132.007812 182.492188 131.941406 182.09375 131.875 C 180.835938 131.675781 179.601562 131.476562 178.367188 131.292969 C 178.171875 131.265625 177.957031 131.226562 177.757812 131.199219 C 176.3125 130.988281 174.894531 130.777344 173.488281 130.578125 C 173.226562 130.539062 172.960938 130.511719 172.695312 130.472656 C 171.582031 130.3125 170.46875 130.167969 169.378906 130.019531 C 169.023438 129.980469 168.664062 129.929688 168.304688 129.886719 C 167.21875 129.753906 166.144531 129.621094 165.085938 129.488281 C 164.847656 129.460938 164.609375 129.4375 164.371094 129.410156 C 163.070312 129.25 161.796875 129.117188 160.550781 128.984375 C 160.378906 128.957031 160.207031 128.945312 160.035156 128.933594 C 158.972656 128.8125 157.9375 128.71875 156.917969 128.613281 C 156.601562 128.585938 156.296875 128.5625 155.992188 128.535156 C 155.050781 128.441406 154.132812 128.359375 153.21875 128.28125 C 152.980469 128.253906 152.742188 128.242188 152.503906 128.214844 C 151.375 128.125 150.261719 128.03125 149.1875 127.953125 C 149.097656 127.953125 149.015625 127.953125 148.925781 127.9375 C 147.957031 127.871094 147.003906 127.804688 146.074219 127.738281 C 145.808594 127.726562 145.542969 127.710938 145.277344 127.6875 C 144.496094 127.644531 143.742188 127.59375 143 127.554688 C 142.773438 127.539062 142.535156 127.527344 142.296875 127.515625 C 140.414062 127.421875 138.636719 127.339844 136.992188 127.273438 C 136.765625 127.273438 136.542969 127.261719 136.328125 127.246094 C 135.71875 127.234375 135.125 127.222656 134.539062 127.195312 C 134.328125 127.195312 134.117188 127.179688 133.917969 127.179688 C 133.226562 127.167969 132.578125 127.15625 131.941406 127.140625 L 131.757812 127.140625 C 131.078125 127.128906 130.445312 127.113281 129.832031 127.113281 C 129.636719 127.113281 129.4375 127.101562 129.238281 127.101562 L 127.195312 127.101562 C 127.167969 139.992188 128.296875 172.3125 138.425781 213.796875 Z M 138.425781 213.796875 " fill-opacity="1" fill-rule="nonzero"/></g><path fill="#000000" d="M 547.082031 465.011719 L 458.644531 553.464844 L 468.585938 563.421875 L 484.285156 547.722656 C 484.285156 547.722656 484.285156 547.722656 484.285156 547.710938 L 547.785156 484.222656 C 547.785156 484.222656 547.785156 484.207031 547.800781 484.207031 L 563.484375 468.523438 L 553.527344 458.566406 L 547.09375 465 C 547.097656 465.011719 547.082031 465.011719 547.082031 465.011719 Z M 547.082031 465.011719 " fill-opacity="1" fill-rule="nonzero"/><g clip-path="url(#3de3c241d4)"><path fill="#000000" d="M 412.894531 531.707031 C 371.222656 514.578125 333.175781 493.820312 299.554688 469.890625 C 297.511719 492.09375 298.640625 526.949219 316.429688 564.257812 C 340.242188 614.183594 386.589844 653.996094 454.335938 682.804688 C 432.804688 651.210938 395.722656 585.945312 412.894531 531.707031 Z M 412.894531 531.707031 " fill-opacity="1" fill-rule="nonzero"/></g><path fill="#000000" d="M 498.34375 552.402344 L 552.476562 498.273438 L 573.050781 518.847656 L 518.921875 572.976562 Z M 498.34375 552.402344 " fill-opacity="1" fill-rule="nonzero"/><g clip-path="url(#3fbe685646)"><path fill="#000000" d="M 531.785156 412.816406 C 586.007812 395.648438 651.273438 432.730469 682.878906 454.257812 C 654.070312 386.511719 614.257812 340.164062 564.332031 316.355469 C 527.023438 298.5625 492.160156 297.433594 469.964844 299.476562 C 493.894531 333.101562 514.65625 371.164062 531.785156 412.816406 Z M 531.785156 412.816406 " fill-opacity="1" fill-rule="nonzero"/></g><path fill="#000000" d="M 145.199219 238.257812 C 164.128906 299.265625 205.972656 383.609375 298.335938 452.617188 C 334.78125 479.832031 376.964844 503.113281 423.726562 521.816406 C 434.964844 526.3125 446.726562 530.609375 458.683594 534.664062 L 534.742188 458.605469 C 530.683594 446.609375 526.375 434.863281 521.894531 423.660156 C 521.894531 423.648438 521.894531 423.648438 521.894531 423.648438 C 503.203125 376.886719 479.910156 334.703125 452.691406 298.257812 C 383.6875 205.894531 299.34375 164.054688 238.332031 145.121094 C 233.601562 168.058594 222.410156 188.84375 205.667969 205.589844 C 188.921875 222.335938 168.132812 233.523438 145.199219 238.257812 Z M 356.945312 310.972656 C 356.945312 336.28125 336.355469 356.871094 311.050781 356.871094 C 285.742188 356.871094 265.136719 336.28125 265.136719 310.972656 C 265.136719 285.664062 285.742188 265.0625 311.050781 265.0625 C 336.355469 265.0625 356.945312 285.664062 356.945312 310.972656 Z M 356.945312 310.972656 " fill-opacity="1" fill-rule="nonzero"/><path fill="#000000" d="M 571.152344 571.074219 C 568.5625 573.664062 568.5625 577.859375 571.152344 580.449219 L 653.980469 663.28125 C 656.570312 665.867188 660.765625 665.867188 663.355469 663.28125 C 664.648438 661.984375 665.296875 660.289062 665.296875 658.59375 C 665.296875 656.898438 664.648438 655.199219 663.355469 653.90625 L 580.523438 571.074219 C 577.9375 568.484375 573.738281 568.484375 571.152344 571.074219 Z M 571.152344 571.074219 " fill-opacity="1" fill-rule="nonzero"/><path fill="#000000" d="M 602.933594 539.292969 C 600.347656 541.878906 600.347656 546.078125 602.933594 548.667969 L 657.023438 602.753906 C 659.609375 605.34375 663.808594 605.34375 666.394531 602.753906 C 667.691406 601.460938 668.339844 599.765625 668.339844 598.070312 C 668.339844 596.375 667.691406 594.675781 666.394531 593.382812 L 612.308594 539.292969 C 609.71875 536.703125 605.523438 536.703125 602.933594 539.292969 Z M 602.933594 539.292969 " fill-opacity="1" fill-rule="nonzero"/><path fill="#000000" d="M 608.171875 490.335938 L 664.859375 547.023438 C 667.449219 549.613281 671.644531 549.613281 674.234375 547.023438 C 675.527344 545.730469 676.175781 544.035156 676.175781 542.335938 C 676.175781 540.640625 675.527344 538.945312 674.234375 537.648438 L 617.546875 480.960938 C 614.957031 478.375 610.761719 478.375 608.171875 480.960938 C 605.582031 483.550781 605.582031 487.746094 608.171875 490.335938 Z M 608.171875 490.335938 " fill-opacity="1" fill-rule="nonzero"/><path fill="#000000" d="M 490.414062 608.097656 C 487.824219 605.507812 483.628906 605.507812 481.039062 608.097656 C 478.449219 610.683594 478.449219 614.882812 481.039062 617.46875 L 537.726562 674.15625 C 540.3125 676.746094 544.511719 676.746094 547.097656 674.15625 C 548.394531 672.863281 549.042969 671.167969 549.042969 669.46875 C 549.042969 667.773438 548.394531 666.078125 547.097656 664.78125 Z M 490.414062 608.097656 " fill-opacity="1" fill-rule="nonzero"/><path fill="#000000" d="M 602.828125 656.945312 L 548.738281 602.859375 C 546.152344 600.269531 541.953125 600.269531 539.363281 602.859375 C 536.777344 605.449219 536.777344 609.644531 539.367188 612.234375 L 593.457031 666.320312 C 596.042969 668.910156 600.242188 668.910156 602.828125 666.320312 C 604.125 665.027344 604.773438 663.332031 604.773438 661.632812 C 604.773438 659.9375 604.125 658.242188 602.828125 656.945312 Z M 602.828125 656.945312 " fill-opacity="1" fill-rule="nonzero"/></svg>