<svg xmlns="http://www.w3.org/2000/svg" xmlns:xlink="http://www.w3.org/1999/xlink" width="1080" zoomAndPan="magnify" viewBox="0 0 810 809.999993" height="1080" preserveAspectRatio="xMidYMid meet" version="1.0"><defs><clipPath id="224f279c53"><path d="M 127.164062 127.082031 L 226 127.082031 L 226 226 L 127.164062 226 Z M 127.164062 127.082031 " clip-rule="nonzero"/></clipPath><clipPath id="16c5fec249"><path d="M 298 469 L 455 469 L 455 682.832031 L 298 682.832031 Z M 298 469 " clip-rule="nonzero"/></clipPath><clipPath id="0009c06bf1"><path d="M 469 298 L 682.914062 298 L 682.914062 455 L 469 455 Z M 469 298 " clip-rule="nonzero"/></clipPath></defs><g clip-path="url(#224f279c53)"><path fill="#ffffff" d="M 138.421875 213.863281 C 138.460938 214.011719 138.503906 214.167969 138.527344 214.316406 C 138.925781 215.90625 139.324219 217.511719 139.75 219.113281 C 139.828125 219.417969 139.894531 219.722656 139.972656 220.027344 C 140.449219 221.859375 140.953125 223.710938 141.457031 225.582031 C 162.28125 221.484375 181.132812 211.4375 196.28125 196.285156 C 211.421875 181.132812 221.480469 162.285156 225.578125 141.460938 C 225.523438 141.449219 225.472656 141.4375 225.417969 141.421875 C 225.351562 141.410156 225.300781 141.394531 225.234375 141.371094 C 223.535156 140.90625 221.851562 140.457031 220.183594 140.015625 C 219.703125 139.898438 219.242188 139.777344 218.765625 139.65625 C 217.453125 139.3125 216.140625 138.980469 214.839844 138.664062 C 214.390625 138.558594 213.925781 138.4375 213.476562 138.332031 C 210.070312 137.496094 206.726562 136.730469 203.453125 136.027344 C 203.042969 135.933594 202.632812 135.839844 202.222656 135.761719 C 200.960938 135.484375 199.714844 135.230469 198.496094 134.980469 C 198.058594 134.886719 197.621094 134.792969 197.183594 134.714844 C 195.726562 134.421875 194.292969 134.132812 192.863281 133.867188 C 192.742188 133.839844 192.625 133.8125 192.503906 133.785156 C 190.925781 133.496094 189.375 133.214844 187.839844 132.9375 C 187.496094 132.882812 187.164062 132.816406 186.816406 132.765625 C 185.625 132.554688 184.445312 132.351562 183.277344 132.15625 C 182.882812 132.089844 182.484375 132.023438 182.085938 131.957031 C 180.828125 131.757812 179.59375 131.558594 178.363281 131.375 C 178.164062 131.347656 177.949219 131.308594 177.75 131.28125 C 176.308594 131.070312 174.886719 130.859375 173.484375 130.65625 C 173.21875 130.621094 172.953125 130.589844 172.6875 130.554688 C 171.574219 130.394531 170.460938 130.246094 169.375 130.101562 C 169.015625 130.0625 168.660156 130.007812 168.300781 129.96875 C 167.214844 129.835938 166.140625 129.703125 165.078125 129.570312 C 164.839844 129.542969 164.601562 129.519531 164.363281 129.488281 C 163.066406 129.332031 161.792969 129.199219 160.546875 129.066406 C 160.375 129.039062 160.203125 129.027344 160.027344 129.015625 C 158.96875 128.894531 157.933594 128.800781 156.914062 128.695312 C 156.597656 128.667969 156.292969 128.644531 155.984375 128.617188 C 155.046875 128.523438 154.128906 128.441406 153.214844 128.363281 C 152.976562 128.335938 152.738281 128.324219 152.5 128.296875 C 151.375 128.207031 150.261719 128.109375 149.1875 128.03125 C 149.09375 128.03125 149.015625 128.03125 148.921875 128.019531 C 147.953125 127.953125 147 127.886719 146.070312 127.820312 C 145.804688 127.808594 145.539062 127.792969 145.277344 127.769531 C 144.492188 127.726562 143.738281 127.675781 142.996094 127.636719 C 142.769531 127.621094 142.53125 127.609375 142.292969 127.59375 C 140.410156 127.503906 138.636719 127.421875 136.992188 127.355469 C 136.765625 127.355469 136.539062 127.34375 136.328125 127.328125 C 135.71875 127.316406 135.121094 127.300781 134.539062 127.277344 C 134.328125 127.277344 134.113281 127.261719 133.914062 127.261719 C 133.226562 127.25 132.578125 127.238281 131.941406 127.222656 L 131.753906 127.222656 C 131.078125 127.210938 130.441406 127.195312 129.832031 127.195312 C 129.632812 127.195312 129.4375 127.183594 129.238281 127.183594 L 127.195312 127.183594 C 127.167969 140.070312 128.296875 172.386719 138.421875 213.863281 Z M 138.421875 213.863281 " fill-opacity="1" fill-rule="nonzero"/></g><path fill="#ffffff" d="M 547.023438 465.042969 L 458.59375 553.484375 L 468.535156 563.4375 L 484.230469 547.742188 C 484.230469 547.742188 484.230469 547.742188 484.230469 547.730469 L 547.722656 484.25 C 547.722656 484.25 547.722656 484.234375 547.738281 484.234375 L 563.417969 468.554688 L 553.464844 458.601562 L 547.035156 465.03125 C 547.035156 465.042969 547.023438 465.042969 547.023438 465.042969 Z M 547.023438 465.042969 " fill-opacity="1" fill-rule="nonzero"/><g clip-path="url(#16c5fec249)"><path fill="#ffffff" d="M 412.851562 531.730469 C 371.1875 514.605469 333.144531 493.847656 299.53125 469.921875 C 297.488281 492.121094 298.613281 526.972656 316.402344 564.273438 C 340.210938 614.191406 386.550781 654 454.289062 682.804688 C 432.757812 651.214844 395.683594 585.957031 412.851562 531.730469 Z M 412.851562 531.730469 " fill-opacity="1" fill-rule="nonzero"/></g><path fill="#ffffff" d="M 498.289062 552.421875 L 552.414062 498.300781 L 572.984375 518.875 L 518.863281 572.992188 Z M 498.289062 552.421875 " fill-opacity="1" fill-rule="nonzero"/><g clip-path="url(#0009c06bf1)"><path fill="#ffffff" d="M 531.726562 412.855469 C 585.941406 395.691406 651.195312 432.765625 682.796875 454.292969 C 653.996094 386.554688 614.1875 340.214844 564.265625 316.410156 C 526.964844 298.621094 492.105469 297.492188 469.914062 299.535156 C 493.839844 333.152344 514.597656 371.207031 531.726562 412.855469 Z M 531.726562 412.855469 " fill-opacity="1" fill-rule="nonzero"/></g><path fill="#ffffff" d="M 145.195312 238.324219 C 164.125 299.324219 205.960938 383.65625 298.308594 452.648438 C 334.75 479.863281 376.929688 503.140625 423.679688 521.839844 C 434.921875 526.335938 446.679688 530.628906 458.636719 534.6875 L 534.683594 458.640625 C 530.625 446.644531 526.316406 434.898438 521.835938 423.699219 C 521.835938 423.683594 521.835938 423.683594 521.835938 423.683594 C 503.148438 376.933594 479.859375 334.753906 452.644531 298.316406 C 383.648438 205.964844 299.320312 164.128906 238.316406 145.203125 C 233.585938 168.132812 222.398438 188.917969 205.65625 205.660156 C 188.914062 222.402344 168.128906 233.589844 145.195312 238.324219 Z M 356.914062 311.027344 C 356.914062 336.332031 336.328125 356.917969 311.023438 356.917969 C 285.71875 356.917969 265.117188 336.332031 265.117188 311.027344 C 265.117188 285.722656 285.71875 265.125 311.023438 265.125 C 336.328125 265.125 356.914062 285.722656 356.914062 311.027344 Z M 356.914062 311.027344 " fill-opacity="1" fill-rule="nonzero"/><path fill="#ffffff" d="M 571.085938 571.089844 C 568.5 573.679688 568.496094 577.875 571.085938 580.464844 L 653.902344 663.285156 C 656.492188 665.871094 660.6875 665.871094 663.277344 663.285156 C 664.570312 661.988281 665.21875 660.292969 665.21875 658.597656 C 665.21875 656.902344 664.570312 655.203125 663.277344 653.910156 L 580.457031 571.089844 C 577.871094 568.503906 573.671875 568.503906 571.085938 571.089844 Z M 571.085938 571.089844 " fill-opacity="1" fill-rule="nonzero"/><path fill="#ffffff" d="M 602.863281 539.3125 C 600.277344 541.902344 600.277344 546.097656 602.863281 548.6875 L 656.945312 602.765625 C 659.53125 605.355469 663.730469 605.355469 666.316406 602.765625 C 667.613281 601.472656 668.257812 599.777344 668.257812 598.082031 C 668.257812 596.386719 667.613281 594.6875 666.316406 593.394531 L 612.234375 539.3125 C 609.648438 536.726562 605.453125 536.726562 602.863281 539.3125 Z M 602.863281 539.3125 " fill-opacity="1" fill-rule="nonzero"/><path fill="#ffffff" d="M 608.101562 490.367188 L 664.78125 547.042969 C 667.367188 549.632812 671.5625 549.632812 674.152344 547.042969 C 675.445312 545.75 676.09375 544.054688 676.09375 542.355469 C 676.09375 540.660156 675.445312 538.964844 674.152344 537.671875 L 617.472656 480.992188 C 614.886719 478.40625 610.6875 478.40625 608.101562 480.992188 C 605.511719 483.582031 605.511719 487.777344 608.101562 490.367188 Z M 608.101562 490.367188 " fill-opacity="1" fill-rule="nonzero"/><path fill="#ffffff" d="M 490.359375 608.105469 C 487.769531 605.519531 483.574219 605.519531 480.988281 608.105469 C 478.398438 610.695312 478.398438 614.890625 480.988281 617.480469 L 537.664062 674.160156 C 540.253906 676.746094 544.449219 676.746094 547.039062 674.160156 C 548.332031 672.863281 548.980469 671.167969 548.980469 669.472656 C 548.980469 667.777344 548.332031 666.078125 547.039062 664.785156 Z M 490.359375 608.105469 " fill-opacity="1" fill-rule="nonzero"/><path fill="#ffffff" d="M 602.757812 656.949219 L 548.675781 602.871094 C 546.089844 600.285156 541.894531 600.285156 539.304688 602.871094 C 536.71875 605.460938 536.714844 609.65625 539.304688 612.242188 L 593.386719 666.324219 C 595.976562 668.910156 600.171875 668.910156 602.757812 666.324219 C 604.054688 665.027344 604.703125 663.332031 604.703125 661.636719 C 604.703125 659.941406 604.054688 658.242188 602.757812 656.949219 Z M 602.757812 656.949219 " fill-opacity="1" fill-rule="nonzero"/></svg>