<svg xmlns="http://www.w3.org/2000/svg" xmlns:xlink="http://www.w3.org/1999/xlink" width="1080" zoomAndPan="magnify" viewBox="0 0 810 809.999993" height="1080" preserveAspectRatio="xMidYMid meet" version="1.0"><defs><clipPath id="9d48eda0ea"><path d="M 184.960938 583.496094 L 289.238281 583.496094 L 289.238281 680.601562 L 184.960938 680.601562 Z M 184.960938 583.496094 " clip-rule="nonzero"/></clipPath><clipPath id="072240a3b1"><path d="M 224.648438 616.539062 L 265.867188 632.035156 C 279.636719 637.878906 289.109375 642.824219 289.109375 656.132812 L 289.109375 662.472656 L 289.054688 662.449219 L 289.109375 663.28125 C 289.109375 672.828125 281.976562 680.230469 273.171875 680.230469 L 200.894531 680.230469 C 192.09375 680.222656 184.960938 672.828125 184.960938 663.699219 L 184.960938 647.179688 L 248.453125 647.179688 L 208.203125 632.035156 C 194.429688 626.207031 184.960938 621.253906 184.960938 607.953125 L 184.960938 601.617188 L 185.035156 601.644531 L 184.960938 600.019531 C 184.960938 590.894531 192.09375 583.496094 200.894531 583.496094 L 273.164062 583.496094 C 281.96875 583.496094 289.109375 590.894531 289.109375 600.019531 L 289.109375 616.539062 Z M 224.648438 616.539062 " clip-rule="nonzero"/></clipPath><clipPath id="c5a1e140a7"><path d="M 298.578125 583.496094 L 403.992188 583.496094 L 403.992188 680.21875 L 298.578125 680.21875 Z M 298.578125 583.496094 " clip-rule="nonzero"/></clipPath><clipPath id="d340010bfd"><path d="M 403.691406 647.648438 C 403.691406 665.640625 389.007812 680.21875 370.882812 680.21875 L 331.386719 680.21875 C 313.261719 680.21875 298.578125 665.640625 298.578125 647.648438 L 298.578125 583.496094 L 331.386719 583.496094 L 331.386719 635.960938 C 331.386719 643.429688 337.496094 649.492188 345.015625 649.492188 L 357.253906 649.492188 C 364.78125 649.492188 370.882812 643.4375 370.882812 635.960938 L 370.882812 583.496094 L 403.691406 583.496094 Z M 403.691406 647.648438 " clip-rule="nonzero"/></clipPath><clipPath id="3bc5df5cfa"><path d="M 413.203125 583.496094 L 519 583.496094 L 519 680.222656 L 413.203125 680.222656 Z M 413.203125 583.496094 " clip-rule="nonzero"/></clipPath><clipPath id="c6b5911d3c"><path d="M 476.332031 638.785156 L 442.015625 638.785156 L 442.015625 652.933594 L 478.167969 652.933594 C 484.148438 652.933594 488.996094 650.152344 488.996094 646.722656 L 488.996094 646.054688 C 488.996094 642.039062 483.324219 638.785156 476.332031 638.785156 M 476.332031 605.457031 L 442.015625 605.457031 L 442.015625 619.605469 L 478.167969 619.605469 C 484.148438 619.605469 488.996094 616.824219 488.996094 613.394531 L 488.996094 612.726562 C 488.996094 608.710938 483.324219 605.457031 476.332031 605.457031 M 495.820312 680.222656 L 413.203125 680.222656 L 413.203125 583.496094 L 489.921875 583.496094 C 502.945312 583.496094 513.503906 594.617188 513.503906 608.34375 C 513.503906 617.394531 508.648438 625.246094 501.539062 629.171875 C 511.800781 633.105469 519.136719 643.476562 519.136719 655.652344 C 519.136719 669.222656 508.699219 680.222656 495.820312 680.222656 " clip-rule="nonzero"/></clipPath><clipPath id="0e7c6747a4"><path d="M 190.195312 129.03125 L 624.894531 129.03125 L 624.894531 547.269531 L 190.195312 547.269531 Z M 190.195312 129.03125 " clip-rule="nonzero"/></clipPath><clipPath id="2977278c3c"><path d="M 486.902344 365.800781 C 485.238281 366.65625 484.503906 367.660156 483.664062 368.503906 L 400.757812 451.472656 C 385.523438 466.71875 370.300781 481.960938 355.066406 497.203125 L 352.414062 499.726562 C 348.71875 502.714844 343.933594 502.8125 340.105469 499.90625 L 335.914062 496.101562 C 310.761719 470.992188 285.617188 445.859375 260.46875 420.746094 L 256.714844 416.960938 C 255.816406 415.988281 254.917969 414.976562 254.214844 413.859375 C 251.773438 409.992188 252.125 405.625 255.105469 402.140625 L 257.886719 399.269531 C 300.4375 356.683594 342.988281 314.09375 385.523438 271.488281 C 386.445312 270.566406 387.625 269.839844 388.085938 268.515625 C 386.859375 267.390625 385.367188 267.953125 384.011719 267.953125 L 204.074219 268.003906 C 202.738281 268.003906 201.40625 268.050781 200.078125 267.96875 C 194.210938 267.585938 190.449219 263.695312 190.261719 257.851562 L 190.25 254.855469 C 190.226562 220.980469 190.210938 187.097656 190.195312 153.222656 L 190.203125 149.886719 C 190.015625 142.15625 196.003906 132.675781 206.46875 130.511719 C 208.207031 130.152344 209.96875 129.890625 211.761719 129.957031 L 213.761719 129.957031 C 342.824219 129.898438 471.894531 129.835938 600.964844 129.777344 C 603.296875 129.777344 605.625 129.742188 607.925781 130.25 C 616.28125 132.109375 621.660156 137.128906 624.050781 145.332031 L 624.53125 148.613281 C 624.621094 150.054688 624.589844 151.5 624.597656 152.945312 L 624.769531 524.152344 C 624.769531 525.148438 624.753906 526.152344 624.761719 527.148438 C 624.882812 538.964844 614.113281 547.34375 604.515625 547.261719 C 581.632812 547.066406 558.75 547.214844 535.875 547.230469 L 499.21875 547.246094 C 498.222656 547.246094 497.21875 547.277344 496.222656 547.207031 C 491.179688 546.839844 487.328125 542.953125 487.023438 537.917969 L 486.984375 533.914062 C 486.953125 479.375 486.933594 424.84375 486.910156 370.304688 C 486.910156 368.976562 486.910156 367.660156 486.910156 365.792969 " clip-rule="nonzero"/></clipPath><clipPath id="35c0991226"><path d="M 526.914062 583.496094 L 625.039062 583.496094 L 625.039062 609.554688 L 526.914062 609.554688 Z M 526.914062 609.554688 L 567.511719 609.554688 L 567.511719 618.824219 L 526.914062 618.824219 Z M 526.914062 618.824219 L 625.039062 618.824219 L 625.039062 644.882812 L 526.914062 644.882812 Z M 526.914062 644.882812 L 567.511719 644.882812 L 567.511719 654.160156 L 526.914062 654.160156 Z M 526.914062 654.160156 L 625.039062 654.160156 L 625.039062 680.21875 L 526.914062 680.21875 Z M 526.914062 654.160156 " clip-rule="nonzero"/></clipPath></defs><g clip-path="url(#9d48eda0ea)"><g clip-path="url(#072240a3b1)"><path fill="#ffffff" d="M 184.960938 583.496094 L 289.238281 583.496094 L 289.238281 680.222656 L 184.960938 680.222656 Z M 184.960938 583.496094 " fill-opacity="1" fill-rule="nonzero"/></g></g><g clip-path="url(#c5a1e140a7)"><g clip-path="url(#d340010bfd)"><path fill="#ffffff" d="M 298.578125 583.496094 L 403.613281 583.496094 L 403.613281 680.21875 L 298.578125 680.21875 Z M 298.578125 583.496094 " fill-opacity="1" fill-rule="nonzero"/></g></g><g clip-path="url(#3bc5df5cfa)"><g clip-path="url(#c6b5911d3c)"><path fill="#ffffff" d="M 413.203125 583.496094 L 518.996094 583.496094 L 518.996094 680.222656 L 413.203125 680.222656 Z M 413.203125 583.496094 " fill-opacity="1" fill-rule="nonzero"/></g></g><g clip-path="url(#0e7c6747a4)"><g clip-path="url(#2977278c3c)"><path fill="#c1ff00" d="M 190.195312 129.777344 L 624.894531 129.777344 L 624.894531 547.269531 L 190.195312 547.269531 Z M 190.195312 129.777344 " fill-opacity="1" fill-rule="nonzero"/></g></g><g clip-path="url(#35c0991226)"><path fill="#ffffff" d="M 526.914062 583.496094 L 625.148438 583.496094 L 625.148438 680.21875 L 526.914062 680.21875 Z M 526.914062 583.496094 " fill-opacity="1" fill-rule="nonzero"/></g></svg>