<svg xmlns="http://www.w3.org/2000/svg" xmlns:xlink="http://www.w3.org/1999/xlink" width="1080" zoomAndPan="magnify" viewBox="0 0 810 809.999993" height="1080" preserveAspectRatio="xMidYMid meet" version="1.0"><defs><clipPath id="887c058f7e"><path d="M 319.6875 532.710938 L 383.199219 532.710938 L 383.199219 601.902344 L 319.6875 601.902344 Z M 319.6875 532.710938 " clip-rule="nonzero"/></clipPath><clipPath id="22aeda7cae"><path d="M 572.890625 211.597656 L 718.671875 211.597656 L 718.671875 416.382812 L 572.890625 416.382812 Z M 572.890625 211.597656 " clip-rule="nonzero"/></clipPath></defs><path fill="#c1ff00" d="M 304.054688 495.910156 L 272.710938 538.015625 C 266.066406 546.941406 267.933594 559.683594 276.859375 566.328125 L 279.0625 567.964844 C 282.667969 570.652344 286.902344 571.949219 291.101562 571.949219 C 297.289062 571.949219 303.414062 569.136719 307.371094 563.816406 L 338.714844 521.710938 C 345.359375 512.789062 343.496094 500.046875 334.566406 493.402344 L 332.367188 491.765625 C 328.757812 489.078125 324.527344 487.78125 320.324219 487.78125 C 314.136719 487.78125 308.011719 490.59375 304.054688 495.910156 " fill-opacity="1" fill-rule="nonzero"/><g clip-path="url(#887c058f7e)"><path fill="#c1ff00" d="M 344.800781 540.128906 L 323.425781 568.84375 C 317.492188 576.8125 319.160156 588.1875 327.132812 594.121094 L 332.808594 598.347656 C 336.03125 600.746094 339.808594 601.902344 343.558594 601.902344 C 349.085938 601.902344 354.554688 599.394531 358.085938 594.644531 L 379.460938 565.933594 C 385.394531 557.964844 383.726562 546.589844 375.757812 540.65625 L 370.078125 536.425781 C 366.855469 534.027344 363.078125 532.871094 359.328125 532.871094 C 353.800781 532.871094 348.335938 535.382812 344.800781 540.128906 " fill-opacity="1" fill-rule="nonzero"/></g><path fill="#c1ff00" d="M 230.5 446.382812 L 221.878906 439.964844 C 218.984375 437.808594 215.589844 436.769531 212.21875 436.769531 C 207.253906 436.773438 202.339844 439.027344 199.164062 443.292969 L 184.78125 462.617188 C 179.449219 469.777344 180.945312 480 188.105469 485.328125 L 196.726562 491.746094 C 199.625 493.902344 203.019531 494.941406 206.386719 494.941406 C 211.351562 494.941406 216.265625 492.683594 219.441406 488.417969 L 233.824219 469.09375 C 239.15625 461.933594 237.660156 451.710938 230.5 446.382812 " fill-opacity="1" fill-rule="nonzero"/><path fill="#c1ff00" d="M 294.269531 449.371094 C 290.40625 446.496094 285.882812 445.109375 281.386719 445.113281 C 274.769531 445.113281 268.21875 448.121094 263.984375 453.808594 L 225.734375 505.191406 C 218.625 514.742188 220.621094 528.367188 230.167969 535.476562 C 234.03125 538.347656 238.554688 539.734375 243.050781 539.734375 C 249.019531 539.734375 254.933594 537.285156 259.140625 532.632812 C 259.773438 531.554688 260.472656 530.496094 261.234375 529.472656 L 279.402344 505.070312 L 292.582031 487.367188 C 293.488281 486.152344 294.472656 485.003906 295.527344 483.921875 L 298.707031 479.652344 C 305.8125 470.105469 303.816406 456.480469 294.269531 449.371094 " fill-opacity="1" fill-rule="nonzero"/><path fill="#c1ff00" d="M 186.496094 209.609375 L 94.273438 374.632812 C 91.351562 379.863281 93.222656 386.46875 98.453125 389.390625 L 130.304688 407.191406 C 135.535156 410.113281 142.140625 408.246094 145.066406 403.015625 L 237.285156 237.988281 C 240.207031 232.761719 238.339844 226.15625 233.109375 223.230469 L 201.253906 205.429688 C 196.027344 202.507812 189.417969 204.378906 186.496094 209.609375 " fill-opacity="1" fill-rule="nonzero"/><g clip-path="url(#22aeda7cae)"><path fill="#c1ff00" d="M 574.28125 245.621094 L 666.503906 410.648438 C 669.425781 415.875 676.03125 417.746094 681.261719 414.824219 L 713.117188 397.023438 C 718.34375 394.101562 720.214844 387.492188 717.292969 382.265625 L 625.070312 217.238281 C 622.148438 212.007812 615.542969 210.136719 610.308594 213.058594 L 578.457031 230.863281 C 573.226562 233.785156 571.359375 240.394531 574.28125 245.621094 " fill-opacity="1" fill-rule="nonzero"/></g><path fill="#c1ff00" d="M 611.917969 469.191406 C 612.171875 461.578125 608.609375 454.332031 602.535156 449.730469 L 554.675781 413.460938 C 537.378906 401.273438 515.800781 387.304688 490.542969 371.953125 C 454.9375 350.304688 421.375 331.574219 405.816406 323.019531 C 403.386719 321.683594 400.542969 321.332031 397.859375 322.035156 L 380.371094 326.617188 C 377.800781 327.292969 375.558594 328.875 374.0625 331.070312 L 374.042969 331.101562 C 369.195312 338.207031 363.796875 344.730469 358.007812 350.488281 C 351.210938 357.246094 343.996094 362.859375 336.570312 367.167969 C 327.65625 372.339844 318.484375 375.597656 309.300781 376.855469 C 307.269531 377.136719 305.222656 377.277344 303.226562 377.277344 C 296.023438 377.277344 289.308594 375.429688 283.816406 371.933594 C 276.777344 367.453125 272.261719 360.894531 270.761719 352.957031 C 269.023438 343.777344 271.398438 333.292969 278.023438 320.902344 C 282.691406 312.179688 288.507812 304.203125 292.757812 298.378906 C 293.800781 296.949219 294.703125 295.710938 295.421875 294.6875 C 298.347656 290.53125 301.761719 285.773438 305.585938 280.796875 C 306.558594 279.519531 305.527344 277.703125 303.9375 277.882812 C 295.90625 278.808594 277.738281 277.902344 249.160156 260.191406 C 246.621094 258.617188 243.28125 259.480469 241.820312 262.089844 L 162.601562 403.847656 C 160.9375 406.824219 161.34375 410.527344 163.605469 413.074219 L 184.609375 436.703125 C 184.902344 437.03125 185.226562 437.324219 185.578125 437.578125 L 187.6875 434.746094 C 190.574219 430.871094 194.394531 427.695312 198.738281 425.574219 C 202.90625 423.539062 207.566406 422.460938 212.21875 422.460938 C 215.429688 422.460938 218.597656 422.960938 221.640625 423.949219 C 224.796875 424.972656 227.753906 426.5 230.421875 428.484375 L 239.042969 434.90625 C 242.34375 437.359375 245.070312 440.40625 247.140625 443.953125 C 247.628906 444.78125 248.074219 445.636719 248.480469 446.503906 C 249.015625 447.660156 250.59375 447.824219 251.351562 446.800781 L 252.5 445.261719 C 255.894531 440.699219 260.382812 436.96875 265.492188 434.46875 C 270.402344 432.070312 275.988281 430.800781 281.355469 430.800781 C 285.109375 430.800781 288.882812 431.390625 292.464844 432.554688 C 296.175781 433.757812 299.671875 435.550781 302.8125 437.890625 C 306.699219 440.785156 309.902344 444.363281 312.34375 448.535156 C 314.683594 452.542969 316.214844 456.910156 316.890625 461.523438 C 317.359375 464.722656 317.402344 467.929688 317.015625 471.097656 C 316.859375 472.394531 317.878906 473.535156 319.183594 473.492188 C 319.570312 473.480469 319.957031 473.472656 320.351562 473.472656 C 323.925781 473.472656 327.554688 474.039062 330.992188 475.152344 C 334.5625 476.308594 337.890625 478.039062 340.910156 480.285156 L 343.113281 481.925781 C 353.90625 489.957031 358.65625 503.136719 356.511719 515.566406 C 356.238281 517.144531 357.476562 518.578125 359.082031 518.5625 C 359.167969 518.5625 359.253906 518.5625 359.34375 518.5625 C 362.742188 518.5625 366.097656 519.09375 369.324219 520.140625 C 372.667969 521.222656 375.792969 522.84375 378.625 524.949219 L 384.300781 529.175781 C 398.644531 539.855469 401.617188 560.136719 390.9375 574.480469 L 388.140625 578.238281 C 386.824219 580.003906 387.136719 582.542969 388.910156 583.851562 C 389.222656 584.082031 389.566406 584.261719 389.929688 584.390625 C 396.300781 586.652344 457.714844 607.511719 475.070312 578.242188 C 476.210938 576.316406 475.441406 573.824219 473.429688 572.835938 L 416.140625 544.824219 C 412.691406 543.132812 410.878906 539.195312 412.003906 535.519531 C 412.820312 532.835938 415.152344 530.410156 420.824219 530.167969 C 421.417969 530.144531 422.019531 530.277344 422.550781 530.554688 L 481.476562 561.296875 C 488.09375 564.753906 495.605469 566.195312 503.011719 565.28125 C 512.085938 564.15625 521.960938 559.480469 522.828125 544.660156 C 523.054688 540.769531 521.050781 537.082031 517.679688 535.117188 L 444.15625 492.285156 C 441.28125 490.613281 439.738281 487.335938 440.285156 484.058594 C 440.800781 480.992188 442.441406 477.871094 446.957031 477.703125 C 448.433594 477.648438 449.894531 478.042969 451.171875 478.785156 L 528.433594 523.691406 C 532.3125 525.945312 536.757812 527.042969 541.238281 526.832031 C 548.96875 526.476562 560.242188 524.128906 564.695312 514.066406 C 568.613281 505.222656 565.164062 494.835938 556.863281 489.855469 L 472.273438 439.101562 C 469.777344 437.601562 468.308594 434.835938 468.5 431.929688 C 468.753906 428.097656 470.695312 423.753906 478.554688 425.011719 C 479.507812 425.164062 480.421875 425.507812 481.25 426.003906 L 577.34375 483.28125 C 584.480469 487.535156 593.246094 488.246094 600.886719 484.972656 C 606.570312 482.535156 611.625 477.910156 611.917969 469.191406 " fill-opacity="1" fill-rule="nonzero"/><path fill="#c1ff00" d="M 647.042969 407.386719 L 566.84375 263.878906 C 566.203125 262.734375 564.859375 262.1875 563.605469 262.5625 C 557.84375 264.273438 550.644531 266.019531 549.597656 266.152344 C 546.5 266.535156 543.386719 266.714844 540.28125 266.714844 C 529.71875 266.714844 519.167969 264.621094 509.195312 261.195312 C 485.957031 253.210938 457.066406 250.910156 431.296875 250.910156 C 412.234375 250.910156 394.878906 252.171875 382.777344 253.308594 C 372.808594 254.25 363.125 254.972656 353.460938 257.828125 C 344.382812 260.507812 336.617188 266.699219 330.28125 273.550781 C 328.601562 275.363281 326.964844 277.21875 325.351562 279.101562 C 318.851562 286.691406 312.847656 294.789062 307.125 302.921875 C 298.746094 314.835938 271.980469 347.441406 291.496094 359.859375 C 294.964844 362.066406 299.09375 362.964844 303.226562 362.964844 C 304.613281 362.964844 306 362.863281 307.363281 362.679688 C 322.976562 360.539062 336.964844 351.230469 347.917969 340.339844 C 353.230469 335.058594 358.003906 329.21875 362.222656 323.035156 C 362.945312 321.972656 365.824219 315.636719 367.035156 315.320312 L 393.832031 308.296875 L 402.785156 305.949219 C 403.023438 305.886719 403.269531 305.855469 403.515625 305.855469 C 403.988281 305.855469 404.457031 305.972656 404.882812 306.203125 C 418.695312 313.6875 539.121094 379.734375 608.222656 439.378906 C 608.230469 439.382812 608.238281 439.390625 608.242188 439.394531 C 609.195312 440.210938 610.597656 440.207031 611.566406 439.410156 L 646.882812 410.375 C 647.5 409.488281 647.570312 408.332031 647.042969 407.386719 " fill-opacity="1" fill-rule="nonzero"/></svg>