<svg xmlns="http://www.w3.org/2000/svg" xmlns:xlink="http://www.w3.org/1999/xlink" width="1080" zoomAndPan="magnify" viewBox="0 0 810 809.999993" height="1080" preserveAspectRatio="xMidYMid meet" version="1.0"><defs><clipPath id="a703075030"><path d="M 115.148438 115.148438 L 694.851562 115.148438 L 694.851562 694.851562 L 115.148438 694.851562 Z M 115.148438 115.148438 " clip-rule="nonzero"/></clipPath><clipPath id="3ed0c2182f"><path d="M 405 115.148438 C 244.917969 115.148438 115.148438 244.917969 115.148438 405 C 115.148438 565.082031 244.917969 694.851562 405 694.851562 C 565.082031 694.851562 694.851562 565.082031 694.851562 405 C 694.851562 244.917969 565.082031 115.148438 405 115.148438 Z M 405 115.148438 " clip-rule="nonzero"/></clipPath><clipPath id="1c1e143dd9"><path d="M 198.207031 285.421875 L 616.867188 285.421875 L 616.867188 523.734375 L 198.207031 523.734375 Z M 198.207031 285.421875 " clip-rule="nonzero"/></clipPath></defs><g clip-path="url(#a703075030)"><g clip-path="url(#3ed0c2182f)"><path fill="#000000" d="M 115.148438 115.148438 L 694.851562 115.148438 L 694.851562 694.851562 L 115.148438 694.851562 Z M 115.148438 115.148438 " fill-opacity="1" fill-rule="nonzero"/></g></g><g clip-path="url(#1c1e143dd9)"><path fill="#c1ff00" d="M 317.671875 514.515625 C 317.671875 519.925781 313.289062 524.328125 307.859375 524.328125 C 302.449219 524.328125 298.066406 519.945312 298.066406 514.515625 C 298.066406 487.960938 307.542969 463.597656 323.300781 444.644531 C 318.523438 438.445312 312.558594 433.214844 305.726562 429.324219 C 297.179688 424.46875 287.25 421.683594 276.644531 421.683594 C 260.398438 421.683594 245.6875 428.257812 235.046875 438.898438 C 224.40625 449.542969 217.832031 464.25 217.832031 480.5 C 217.832031 485.910156 213.449219 490.3125 208.019531 490.3125 C 202.609375 490.3125 198.207031 485.929688 198.207031 480.5 C 198.207031 458.839844 206.992188 439.234375 221.1875 425.039062 C 227.601562 418.625 235.144531 413.3125 243.476562 409.402344 C 242.488281 408.554688 241.523438 407.664062 240.59375 406.738281 C 231.375 397.519531 225.667969 384.761719 225.667969 370.6875 C 225.667969 356.609375 231.375 343.855469 240.59375 334.636719 C 249.816406 325.414062 262.570312 319.707031 276.644531 319.707031 C 290.722656 319.707031 303.457031 325.414062 312.699219 334.636719 C 321.917969 343.855469 327.625 356.609375 327.625 370.6875 C 327.625 384.761719 321.917969 397.5 312.699219 406.738281 C 311.769531 407.664062 310.800781 408.554688 309.816406 409.402344 C 311.710938 410.292969 313.585938 411.257812 315.402344 412.304688 C 323.753906 417.0625 331.15625 423.304688 337.21875 430.667969 C 346.320312 423.027344 356.707031 416.847656 368 412.464844 C 364.523438 410.054688 361.265625 407.351562 358.304688 404.367188 C 345.726562 391.792969 337.949219 374.398438 337.949219 355.207031 C 337.949219 336.015625 345.726562 318.621094 358.304688 306.046875 C 370.882812 293.46875 388.277344 285.691406 407.464844 285.691406 C 426.65625 285.691406 444.050781 293.46875 456.628906 306.046875 C 469.203125 318.621094 476.984375 336.015625 476.984375 355.207031 C 476.984375 374.398438 469.203125 391.792969 456.628906 404.367188 C 453.644531 407.351562 450.410156 410.054688 446.933594 412.464844 C 458.207031 416.828125 468.59375 423.027344 477.714844 430.667969 C 483.773438 423.304688 491.179688 417.0625 499.53125 412.304688 C 501.347656 411.257812 503.222656 410.292969 505.117188 409.402344 C 504.128906 408.554688 503.164062 407.664062 502.234375 406.738281 C 493.015625 397.519531 487.308594 384.761719 487.308594 370.6875 C 487.308594 356.609375 493.015625 343.855469 502.234375 334.636719 C 511.453125 325.414062 524.210938 319.707031 538.285156 319.707031 C 552.363281 319.707031 565.117188 325.414062 574.335938 334.636719 C 583.558594 343.855469 589.265625 356.609375 589.265625 370.6875 C 589.265625 384.761719 583.558594 397.5 574.335938 406.738281 C 573.410156 407.664062 572.460938 408.554688 571.457031 409.402344 C 579.785156 413.292969 587.328125 418.625 593.746094 425.039062 C 607.941406 439.234375 616.726562 458.839844 616.726562 480.5 C 616.726562 485.910156 612.34375 490.3125 606.914062 490.3125 C 601.503906 490.3125 597.101562 485.929688 597.101562 480.5 C 597.101562 464.25 590.527344 449.542969 579.886719 438.898438 C 569.242188 428.257812 554.535156 421.683594 538.285156 421.683594 C 527.683594 421.683594 517.753906 424.46875 509.203125 429.324219 C 502.371094 433.214844 496.410156 438.445312 491.632812 444.644531 C 507.386719 463.597656 516.863281 487.941406 516.863281 514.515625 C 516.863281 519.925781 512.480469 524.328125 507.070312 524.328125 C 501.660156 524.328125 497.257812 519.945312 497.257812 514.515625 C 497.257812 489.738281 487.210938 467.292969 470.980469 451.0625 C 454.75 434.832031 432.304688 424.785156 407.523438 424.785156 C 382.746094 424.785156 360.300781 434.832031 344.070312 451.0625 C 327.839844 467.292969 317.792969 489.738281 317.792969 514.515625 Z M 254.453125 392.878906 C 260.121094 398.542969 267.960938 402.058594 276.625 402.058594 C 285.292969 402.058594 293.132812 398.542969 298.796875 392.878906 C 304.464844 387.210938 307.980469 379.355469 307.980469 370.707031 C 307.980469 362.039062 304.464844 354.199219 298.796875 348.535156 C 293.132812 342.867188 285.273438 339.355469 276.625 339.355469 C 267.960938 339.355469 260.121094 342.867188 254.453125 348.535156 C 248.789062 354.199219 245.273438 362.039062 245.273438 370.707031 C 245.273438 379.375 248.789062 387.210938 254.453125 392.878906 Z M 538.226562 402.058594 C 546.894531 402.058594 554.734375 398.542969 560.398438 392.878906 C 566.066406 387.210938 569.578125 379.355469 569.578125 370.707031 C 569.578125 362.039062 566.066406 354.199219 560.398438 348.535156 C 554.734375 342.867188 546.894531 339.355469 538.226562 339.355469 C 529.558594 339.355469 521.722656 342.867188 516.054688 348.535156 C 510.390625 354.199219 506.875 362.039062 506.875 370.707031 C 506.875 379.375 510.390625 387.210938 516.054688 392.878906 C 521.722656 398.542969 529.578125 402.058594 538.226562 402.058594 Z M 407.425781 405.160156 C 421.207031 405.160156 433.683594 399.570312 442.726562 390.527344 C 451.75 381.507812 457.359375 369.027344 457.359375 355.226562 C 457.359375 341.445312 451.769531 328.96875 442.726562 319.925781 C 433.707031 310.902344 421.207031 305.316406 407.425781 305.316406 C 393.644531 305.316406 381.167969 310.902344 372.125 319.925781 C 363.101562 328.949219 357.496094 341.445312 357.496094 355.226562 C 357.496094 369.007812 363.082031 381.484375 372.125 390.527344 C 381.148438 399.550781 393.644531 405.160156 407.425781 405.160156 Z M 407.425781 405.160156 " fill-opacity="1" fill-rule="nonzero"/></g></svg>