<svg xmlns="http://www.w3.org/2000/svg" xmlns:xlink="http://www.w3.org/1999/xlink" width="1080" zoomAndPan="magnify" viewBox="0 0 810 809.999993" height="1080" preserveAspectRatio="xMidYMid meet" version="1.0"><defs><clipPath id="2db86a397b"><path d="M 108.109375 108.109375 L 701.890625 108.109375 L 701.890625 701.890625 L 108.109375 701.890625 Z M 108.109375 108.109375 " clip-rule="nonzero"/></clipPath><clipPath id="f305f15e54"><path d="M 405 108.109375 C 241.03125 108.109375 108.109375 241.03125 108.109375 405 C 108.109375 568.96875 241.03125 701.890625 405 701.890625 C 568.96875 701.890625 701.890625 568.96875 701.890625 405 C 701.890625 241.03125 568.96875 108.109375 405 108.109375 Z M 405 108.109375 " clip-rule="nonzero"/></clipPath><clipPath id="2ac14412aa"><path d="M 193.183594 282.515625 L 622 282.515625 L 622 526.617188 L 193.183594 526.617188 Z M 193.183594 282.515625 " clip-rule="nonzero"/></clipPath></defs><g clip-path="url(#2db86a397b)"><g clip-path="url(#f305f15e54)"><path fill="#ff00c1" d="M 108.109375 108.109375 L 701.890625 108.109375 L 701.890625 701.890625 L 108.109375 701.890625 Z M 108.109375 108.109375 " fill-opacity="1" fill-rule="nonzero"/></g></g><g clip-path="url(#2ac14412aa)"><path fill="#ffffff" d="M 315.554688 517.175781 C 315.554688 522.71875 311.0625 527.226562 305.503906 527.226562 C 299.960938 527.226562 295.472656 522.738281 295.472656 517.175781 C 295.472656 489.976562 305.179688 465.023438 321.316406 445.609375 C 316.421875 439.257812 310.316406 433.898438 303.316406 429.914062 C 294.5625 424.941406 284.390625 422.089844 273.53125 422.089844 C 256.886719 422.089844 241.820312 428.824219 230.921875 439.722656 C 220.019531 450.621094 213.285156 465.6875 213.285156 482.332031 C 213.285156 487.875 208.796875 492.382812 203.234375 492.382812 C 197.695312 492.382812 193.183594 487.894531 193.183594 482.332031 C 193.183594 460.148438 202.183594 440.066406 216.722656 425.527344 C 223.296875 418.953125 231.023438 413.515625 239.554688 409.511719 C 238.542969 408.640625 237.554688 407.730469 236.601562 406.78125 C 227.160156 397.335938 221.316406 384.273438 221.316406 369.851562 C 221.316406 355.433594 227.160156 342.371094 236.601562 332.925781 C 246.046875 323.484375 259.109375 317.636719 273.53125 317.636719 C 287.949219 317.636719 300.992188 323.484375 310.457031 332.925781 C 319.902344 342.371094 325.746094 355.433594 325.746094 369.851562 C 325.746094 384.273438 319.902344 397.316406 310.457031 406.78125 C 309.507812 407.730469 308.515625 408.640625 307.503906 409.511719 C 309.445312 410.421875 311.367188 411.410156 313.226562 412.484375 C 321.78125 417.355469 329.363281 423.746094 335.574219 431.289062 C 344.894531 423.464844 355.535156 417.132812 367.101562 412.644531 C 363.542969 410.175781 360.203125 407.40625 357.171875 404.351562 C 344.289062 391.472656 336.320312 373.65625 336.320312 354 C 336.320312 334.34375 344.289062 316.527344 357.171875 303.644531 C 370.054688 290.761719 387.871094 282.792969 407.527344 282.792969 C 427.183594 282.792969 445 290.761719 457.878906 303.644531 C 470.761719 316.527344 478.730469 334.34375 478.730469 354 C 478.730469 373.65625 470.761719 391.472656 457.878906 404.351562 C 454.828125 407.40625 451.511719 410.175781 447.953125 412.644531 C 459.5 417.113281 470.136719 423.464844 479.480469 431.289062 C 485.6875 423.746094 493.269531 417.355469 501.824219 412.484375 C 503.683594 411.410156 505.605469 410.421875 507.546875 409.511719 C 506.535156 408.640625 505.546875 407.730469 504.59375 406.78125 C 495.152344 397.335938 489.308594 384.273438 489.308594 369.851562 C 489.308594 355.433594 495.152344 342.371094 504.59375 332.925781 C 514.039062 323.484375 527.101562 317.636719 541.523438 317.636719 C 555.941406 317.636719 569.003906 323.484375 578.449219 332.925781 C 587.894531 342.371094 593.738281 355.433594 593.738281 369.851562 C 593.738281 384.273438 587.894531 397.316406 578.449219 406.78125 C 577.5 407.730469 576.527344 408.640625 575.496094 409.511719 C 584.03125 413.492188 591.753906 418.953125 598.328125 425.527344 C 612.867188 440.066406 621.867188 460.148438 621.867188 482.332031 C 621.867188 487.875 617.378906 492.382812 611.816406 492.382812 C 606.273438 492.382812 601.765625 487.894531 601.765625 482.332031 C 601.765625 465.6875 595.03125 450.621094 584.132812 439.722656 C 573.230469 428.824219 558.164062 422.089844 541.523438 422.089844 C 530.664062 422.089844 520.492188 424.941406 511.734375 429.914062 C 504.738281 433.898438 498.628906 439.257812 493.734375 445.609375 C 509.875 465.023438 519.582031 489.957031 519.582031 517.175781 C 519.582031 522.71875 515.089844 527.226562 509.550781 527.226562 C 504.007812 527.226562 499.5 522.738281 499.5 517.175781 C 499.5 491.796875 489.207031 468.804688 472.582031 452.179688 C 455.960938 435.558594 432.964844 425.265625 407.585938 425.265625 C 382.207031 425.265625 359.214844 435.558594 342.589844 452.179688 C 325.96875 468.804688 315.675781 491.796875 315.675781 517.175781 Z M 250.800781 392.582031 C 256.605469 398.386719 264.632812 401.988281 273.511719 401.988281 C 282.386719 401.988281 290.417969 398.386719 296.21875 392.582031 C 302.023438 386.78125 305.625 378.730469 305.625 369.875 C 305.625 360.996094 302.023438 352.96875 296.21875 347.164062 C 290.417969 341.359375 282.367188 337.761719 273.511719 337.761719 C 264.632812 337.761719 256.605469 341.359375 250.800781 347.164062 C 244.996094 352.96875 241.394531 360.996094 241.394531 369.875 C 241.394531 378.75 244.996094 386.78125 250.800781 392.582031 Z M 541.460938 401.988281 C 550.339844 401.988281 558.367188 398.386719 564.171875 392.582031 C 569.976562 386.78125 573.574219 378.730469 573.574219 369.875 C 573.574219 360.996094 569.976562 352.96875 564.171875 347.164062 C 558.367188 341.359375 550.339844 337.761719 541.460938 337.761719 C 532.582031 337.761719 524.554688 341.359375 518.75 347.164062 C 512.949219 352.96875 509.347656 360.996094 509.347656 369.875 C 509.347656 378.75 512.949219 386.78125 518.75 392.582031 C 524.554688 398.386719 532.605469 401.988281 541.460938 401.988281 Z M 407.484375 405.164062 C 421.601562 405.164062 434.382812 399.4375 443.644531 390.175781 C 452.886719 380.933594 458.628906 368.15625 458.628906 354.019531 C 458.628906 339.902344 452.90625 327.121094 443.644531 317.859375 C 434.402344 308.617188 421.601562 302.894531 407.484375 302.894531 C 393.371094 302.894531 380.589844 308.617188 371.328125 317.859375 C 362.085938 327.101562 356.34375 339.902344 356.34375 354.019531 C 356.34375 368.132812 362.066406 380.914062 371.328125 390.175781 C 380.570312 399.417969 393.371094 405.164062 407.484375 405.164062 Z M 407.484375 405.164062 " fill-opacity="1" fill-rule="nonzero"/></g></svg>