<svg xmlns="http://www.w3.org/2000/svg" xmlns:xlink="http://www.w3.org/1999/xlink" width="1080" zoomAndPan="magnify" viewBox="0 0 810 809.999993" height="1080" preserveAspectRatio="xMidYMid meet" version="1.0"><defs><clipPath id="0d0f236a20"><path d="M 108.890625 108.890625 L 701.109375 108.890625 L 701.109375 701.109375 L 108.890625 701.109375 Z M 108.890625 108.890625 " clip-rule="nonzero"/></clipPath><clipPath id="b45d1b2a5a"><path d="M 405 108.890625 C 241.464844 108.890625 108.890625 241.464844 108.890625 405 C 108.890625 568.535156 241.464844 701.109375 405 701.109375 C 568.535156 701.109375 701.109375 568.535156 701.109375 405 C 701.109375 241.464844 568.535156 108.890625 405 108.890625 Z M 405 108.890625 " clip-rule="nonzero"/></clipPath><clipPath id="869cdb12ed"><path d="M 212.609375 212.75 L 598 212.75 L 598 598 L 212.609375 598 Z M 212.609375 212.75 " clip-rule="nonzero"/></clipPath><clipPath id="0f470c0db8"><path d="M 212.609375 477.828125 C 220.917969 495.015625 232.652344 507.925781 250.695312 514.0625 C 247.238281 538.773438 271.488281 562.632812 295.773438 559.210938 C 302.050781 577.113281 314.816406 589.058594 332.113281 597.261719 L 345.808594 564.84375 C 358.183594 535.386719 370.558594 505.929688 382.824219 476.4375 C 384 473.585938 385.179688 472.15625 388.671875 472.191406 C 400.40625 472.230469 409.894531 466.628906 418.488281 459.140625 L 420.875 456.964844 C 424.15625 459.035156 425.585938 462.351562 426.796875 465.738281 C 430.863281 476.828125 435.460938 487.527344 444.484375 495.730469 C 455.398438 505.644531 467.703125 509.851562 482.324219 506.429688 L 486.566406 506.320312 C 500.046875 515.523438 512.816406 519.480469 527.363281 515.273438 L 530.539062 515.558594 C 550.722656 528.609375 572.300781 527.683594 590.023438 513.667969 L 597.335938 507.960938 C 555.179688 465.773438 513.3125 423.90625 471.054688 381.644531 L 483.109375 369.59375 C 489.382812 363.53125 492.84375 356.253906 493.199219 347.480469 L 494.054688 343.34375 C 501.296875 327.191406 507.785156 312.925781 514.242188 298.695312 L 515.417969 295.808594 L 512.601562 295.023438 C 498.265625 301.511719 485.425781 307.503906 472.410156 313.140625 L 459 316.953125 C 452.152344 318.167969 446.269531 320.949219 441.347656 325.800781 L 428.367188 338.746094 C 386.25 296.589844 344.308594 254.652344 302.40625 212.75 C 283.363281 231.722656 279.402344 256.863281 293.277344 277.761719 L 294.988281 281.148438 C 290.460938 297.054688 294.347656 309.859375 302.621094 321.839844 L 304.117188 325.191406 C 298.804688 346.019531 306.402344 360.925781 321.628906 371.695312 C 330.117188 377.6875 340.566406 380.898438 350.121094 385.320312 L 352.726562 386.460938 C 350.550781 391.847656 346.308594 395.984375 343.988281 400.976562 C 341.027344 407.359375 339.066406 414.347656 337.785156 421.265625 C 337.175781 424.476562 336.355469 425.902344 333.46875 427.117188 L 216.675781 476.082031 C 215.496094 476.578125 214.320312 477.113281 212.609375 477.828125 " clip-rule="nonzero"/></clipPath></defs><g clip-path="url(#0d0f236a20)"><g clip-path="url(#b45d1b2a5a)"><path fill="#ff00c1" d="M 108.890625 108.890625 L 701.109375 108.890625 L 701.109375 701.109375 L 108.890625 701.109375 Z M 108.890625 108.890625 " fill-opacity="1" fill-rule="nonzero"/></g></g><g clip-path="url(#869cdb12ed)"><g clip-path="url(#0f470c0db8)"><path fill="#ffffff" d="M 212.609375 212.75 L 597.109375 212.75 L 597.109375 597.25 L 212.609375 597.25 Z M 212.609375 212.75 " fill-opacity="1" fill-rule="nonzero"/></g></g></svg>