<svg xmlns="http://www.w3.org/2000/svg" xmlns:xlink="http://www.w3.org/1999/xlink" width="1080" zoomAndPan="magnify" viewBox="0 0 810 809.999993" height="1080" preserveAspectRatio="xMidYMid meet" version="1.0"><defs><clipPath id="a3c1dc121b"><path d="M 108.109375 108.109375 L 701.890625 108.109375 L 701.890625 701.890625 L 108.109375 701.890625 Z M 108.109375 108.109375 " clip-rule="nonzero"/></clipPath><clipPath id="daca63f1d0"><path d="M 405 108.109375 C 241.03125 108.109375 108.109375 241.03125 108.109375 405 C 108.109375 568.96875 241.03125 701.890625 405 701.890625 C 568.96875 701.890625 701.890625 568.96875 701.890625 405 C 701.890625 241.03125 568.96875 108.109375 405 108.109375 Z M 405 108.109375 " clip-rule="nonzero"/></clipPath><clipPath id="4fb61cae9e"><path d="M 203 312.574219 L 593 312.574219 L 593 585 L 203 585 Z M 203 312.574219 " clip-rule="nonzero"/></clipPath><clipPath id="6af5980953"><path d="M 331.148438 479.539062 L 292.175781 522.070312 C 283.570312 531.421875 274.96875 540.769531 266.367188 550.121094 L 264.757812 551.804688 C 256.15625 562.167969 255.371094 573.761719 262.140625 580.195312 C 269.207031 586.925781 281.328125 585.582031 289.96875 576.265625 C 316.449219 547.691406 341.25 517.28125 369.453125 490.539062 C 403.191406 458.558594 433.785156 423.808594 465.542969 390.109375 C 467.449219 388.089844 471.675781 387.117188 474.667969 387.414062 L 519.328125 393.175781 C 525.203125 394.074219 529.617188 392.949219 534.105469 388.613281 L 586.46875 339.3125 C 594.660156 331.644531 594.585938 329.4375 586.019531 320.238281 C 577.042969 310.585938 575.023438 310.289062 566.421875 318.292969 L 524.492188 357.117188 C 521.347656 359.847656 515.964844 361.007812 511.585938 361.15625 C 492.023438 361.792969 475.566406 355.210938 463.410156 339.089844 C 460.492188 335.234375 456.339844 332.320312 452.601562 329.140625 C 442.726562 320.761719 430.34375 321.171875 421.59375 330.636719 L 339.152344 420.855469 C 338.367188 421.714844 337.285156 422.574219 337.058594 423.585938 C 333.507812 438.808594 318.992188 442.25 308.78125 450.441406 C 292.4375 463.496094 274.109375 468.917969 253.425781 468.394531 C 243.921875 468.132812 234.347656 469.105469 224.921875 470.414062 C 219.984375 471.085938 214.597656 472.734375 210.632812 475.652344 C 200.234375 483.242188 201.65625 496.785156 213.328125 502.28125 C 217.589844 504.300781 222.789062 505.3125 227.503906 505.125 L 285.40625 501.046875 C 292.023438 500.335938 298.71875 497.417969 304.707031 494.242188 L 330.175781 478.382812 C 330.515625 478.753906 330.8125 479.128906 331.148438 479.539062 " clip-rule="nonzero"/></clipPath><clipPath id="e9fb2637bb"><path d="M 299 290 L 421 290 L 421 418 L 299 418 Z M 299 290 " clip-rule="nonzero"/></clipPath><clipPath id="d894dd6e4c"><path d="M 299.394531 390.371094 L 328.980469 417.636719 C 336.238281 409.933594 343.34375 402.5625 350.261719 395.007812 L 414.039062 325.625 C 422.378906 316.496094 422.042969 304.714844 413.25 296.558594 C 404.164062 288.144531 392.679688 288.40625 384.261719 297.53125 L 303.996094 384.648438 C 302.5 386.292969 301.1875 388.125 299.394531 390.371094 " clip-rule="nonzero"/></clipPath><clipPath id="9e9311fffd"><path d="M 453 247 L 525 247 L 525 347 L 453 347 Z M 453 247 " clip-rule="nonzero"/></clipPath><clipPath id="b927df7e5c"><path d="M 488.023438 274.15625 C 470.070312 276.960938 457.800781 285.636719 453.871094 303.441406 C 450.09375 320.609375 459.371094 337.21875 476.089844 343.839844 C 492.023438 350.121094 509.640625 344.175781 519.140625 329.289062 C 528.304688 314.964844 526.363281 294.914062 512.746094 284.554688 C 503.730469 277.707031 498.683594 268.992188 493.707031 259.605469 C 491.835938 256.015625 490.417969 252.011719 487.761719 249.09375 L 486.824219 248.308594 C 482.636719 246.4375 478.371094 248.871094 477.847656 252.761719 L 477.773438 254.070312 C 480.652344 261.214844 484.394531 267.347656 487.984375 274.15625 " clip-rule="nonzero"/></clipPath><clipPath id="ef87113e55"><path d="M 336 222 L 387 222 L 387 273 L 336 273 Z M 336 222 " clip-rule="nonzero"/></clipPath><clipPath id="413cc86516"><path d="M 338.816406 237.238281 C 333.058594 250.253906 338.707031 264.953125 351.648438 270.5625 C 364.175781 275.988281 378.878906 270.414062 384.5625 258.070312 C 390.472656 245.203125 385.011719 230.503906 372.070312 224.59375 C 359.089844 218.648438 344.617188 224.144531 338.816406 237.238281 " clip-rule="nonzero"/></clipPath><clipPath id="71bc02e39c"><path d="M 387 201 L 427 201 L 427 241 L 387 241 Z M 387 201 " clip-rule="nonzero"/></clipPath><clipPath id="5ab153c09a"><path d="M 398.441406 239.070312 C 408.351562 243.632812 420.097656 239.183594 424.511719 229.234375 C 428.925781 219.285156 424.359375 207.539062 414.449219 203.199219 C 404.875 199.011719 393.390625 203.347656 388.902344 212.886719 C 384.226562 222.726562 388.566406 234.542969 398.476562 239.070312 " clip-rule="nonzero"/></clipPath><clipPath id="42129c5ee8"><path d="M 517 266 L 552 266 L 552 317 L 517 317 Z M 517 266 " clip-rule="nonzero"/></clipPath><clipPath id="d994a27469"><path d="M 534.402344 316.609375 L 536.796875 316.832031 C 543.042969 316.757812 547.007812 316.570312 551.570312 316.382812 C 550.824219 296.785156 544.015625 280.550781 529.839844 266.261719 C 525.3125 270.863281 520.976562 275.238281 517.871094 278.382812 L 534.402344 316.609375 " clip-rule="nonzero"/></clipPath><clipPath id="64aebe9e45"><path d="M 420 237 L 449 237 L 449 265 L 420 265 Z M 420 237 " clip-rule="nonzero"/></clipPath><clipPath id="cf31500ce9"><path d="M 428.550781 263.757812 C 435.882812 266.972656 444.074219 263.644531 447.140625 256.238281 C 450.058594 249.207031 446.839844 241.277344 439.808594 238.246094 C 432.476562 235.066406 424.136719 238.398438 421.144531 245.726562 C 418.300781 252.648438 421.59375 260.726562 428.511719 263.792969 " clip-rule="nonzero"/></clipPath></defs><g clip-path="url(#a3c1dc121b)"><g clip-path="url(#daca63f1d0)"><path fill="#000000" d="M 108.109375 108.109375 L 701.890625 108.109375 L 701.890625 701.890625 L 108.109375 701.890625 Z M 108.109375 108.109375 " fill-opacity="1" fill-rule="nonzero"/></g></g><g clip-path="url(#4fb61cae9e)"><g clip-path="url(#6af5980953)"><path fill="#c0ff00" d="M 184.863281 182.890625 L 611.675781 182.890625 L 611.675781 603.136719 L 184.863281 603.136719 Z M 184.863281 182.890625 " fill-opacity="1" fill-rule="nonzero"/></g></g><g clip-path="url(#e9fb2637bb)"><g clip-path="url(#d894dd6e4c)"><path fill="#c0ff00" d="M 184.863281 182.890625 L 611.675781 182.890625 L 611.675781 603.136719 L 184.863281 603.136719 Z M 184.863281 182.890625 " fill-opacity="1" fill-rule="nonzero"/></g></g><g clip-path="url(#9e9311fffd)"><g clip-path="url(#b927df7e5c)"><path fill="#c0ff00" d="M 184.863281 182.890625 L 611.675781 182.890625 L 611.675781 603.136719 L 184.863281 603.136719 Z M 184.863281 182.890625 " fill-opacity="1" fill-rule="nonzero"/></g></g><g clip-path="url(#ef87113e55)"><g clip-path="url(#413cc86516)"><path fill="#c0ff00" d="M 184.863281 182.890625 L 611.675781 182.890625 L 611.675781 603.136719 L 184.863281 603.136719 Z M 184.863281 182.890625 " fill-opacity="1" fill-rule="nonzero"/></g></g><g clip-path="url(#71bc02e39c)"><g clip-path="url(#5ab153c09a)"><path fill="#c0ff00" d="M 184.863281 182.890625 L 611.675781 182.890625 L 611.675781 603.136719 L 184.863281 603.136719 Z M 184.863281 182.890625 " fill-opacity="1" fill-rule="nonzero"/></g></g><g clip-path="url(#42129c5ee8)"><g clip-path="url(#d994a27469)"><path fill="#c0ff00" d="M 184.863281 182.890625 L 611.675781 182.890625 L 611.675781 603.136719 L 184.863281 603.136719 Z M 184.863281 182.890625 " fill-opacity="1" fill-rule="nonzero"/></g></g><g clip-path="url(#64aebe9e45)"><g clip-path="url(#cf31500ce9)"><path fill="#c0ff00" d="M 184.863281 182.890625 L 611.675781 182.890625 L 611.675781 603.136719 L 184.863281 603.136719 Z M 184.863281 182.890625 " fill-opacity="1" fill-rule="nonzero"/></g></g></svg>