<svg xmlns="http://www.w3.org/2000/svg" xmlns:xlink="http://www.w3.org/1999/xlink" width="1080" zoomAndPan="magnify" viewBox="0 0 810 809.999993" height="1080" preserveAspectRatio="xMidYMid meet" version="1.0"><defs><clipPath id="3e3ae013eb"><path d="M 108.109375 108.109375 L 701.890625 108.109375 L 701.890625 701.890625 L 108.109375 701.890625 Z M 108.109375 108.109375 " clip-rule="nonzero"/></clipPath><clipPath id="9e54d462f4"><path d="M 405 108.109375 C 241.03125 108.109375 108.109375 241.03125 108.109375 405 C 108.109375 568.96875 241.03125 701.890625 405 701.890625 C 568.96875 701.890625 701.890625 568.96875 701.890625 405 C 701.890625 241.03125 568.96875 108.109375 405 108.109375 Z M 405 108.109375 " clip-rule="nonzero"/></clipPath><clipPath id="70ec4ec673"><path d="M 469 258.011719 L 565 258.011719 L 565 352.269531 L 469 352.269531 Z M 469 258.011719 " clip-rule="nonzero"/></clipPath><clipPath id="16fbadebdc"><path d="M 564.808594 258.1875 C 565.628906 289.816406 560.765625 320.5 549.816406 350.210938 L 549.054688 352.066406 C 522.601562 326.488281 496.476562 300.367188 469.929688 273.847656 L 496.933594 265.761719 C 511.53125 261.867188 526.371094 259.496094 541.484375 258.675781 L 542.882812 258.371094 Z M 564.808594 258.1875 " clip-rule="nonzero"/></clipPath><clipPath id="6dba48efbd"><path d="M 245 370.027344 L 325.527344 370.027344 L 325.527344 446.53125 L 245 446.53125 Z M 245 370.027344 " clip-rule="nonzero"/></clipPath><clipPath id="ef8d6b6dcc"><path d="M 245.105469 438.644531 L 249.484375 428.730469 C 257.484375 410.179688 268.796875 394.304688 286.066406 383.234375 C 297.015625 376.210938 309.121094 372.316406 321.953125 370.675781 L 324.414062 370.523438 L 325.085938 372.410156 C 310.488281 396.707031 296.316406 420.214844 282.238281 443.78125 L 280.109375 446.277344 C 266.941406 443.476562 256.023438 441.410156 245.105469 439.28125 Z M 245.105469 438.644531 " clip-rule="nonzero"/></clipPath><clipPath id="389b672aae"><path d="M 316 283 L 541 283 L 541 507 L 316 507 Z M 316 283 " clip-rule="nonzero"/></clipPath><clipPath id="b1f7309595"><path d="M 437.054688 348.535156 C 416.285156 348.535156 399.5 365.355469 399.621094 386.003906 C 399.742188 406.652344 416.222656 423.195312 436.902344 423.347656 C 457.582031 423.5 474.398438 406.773438 474.460938 385.972656 C 474.519531 365.171875 457.886719 348.507812 437.054688 348.535156 M 364.464844 471.546875 L 403.390625 432.652344 C 399.042969 428.304688 394.753906 424.015625 390.34375 419.636719 L 351.421875 458.683594 C 339.589844 446.824219 328.035156 435.296875 316.628906 423.863281 C 338.40625 383.964844 362.550781 345.617188 398.433594 316.179688 C 414.09375 303.316406 430.941406 292.371094 449.097656 283.335938 L 452.046875 283.308594 C 476.921875 308.183594 500.613281 331.871094 524.300781 355.5625 L 538.6875 369.855469 C 540.207031 371.3125 540.390625 372.347656 539.417969 374.324219 C 520.621094 412.550781 493.527344 443.722656 459.46875 469.054688 C 442.316406 481.824219 423.734375 492.226562 405.335938 502.992188 L 399.527344 506.640625 C 387.882812 494.992188 376.355469 483.46875 364.464844 471.578125 " clip-rule="nonzero"/></clipPath><clipPath id="a0c9378b04"><path d="M 377 497.074219 L 452 497.074219 L 452 577.675781 L 377 577.675781 Z M 377 497.074219 " clip-rule="nonzero"/></clipPath><clipPath id="dac2799bda"><path d="M 383.746094 577.496094 L 379.398438 556.058594 C 378.605469 552.195312 377.726562 548.332031 377.148438 544.441406 L 377.574219 541.917969 C 402.691406 526.710938 427.082031 512.054688 451.5 497.394531 L 451.894531 497.335938 C 451.589844 510.714844 447.515625 523 440.886719 534.558594 C 428.023438 556.9375 407.710938 569.5 383.714844 577.496094 " clip-rule="nonzero"/></clipPath><clipPath id="52fea54f9e"><path d="M 246.292969 512.101562 L 310.5 512.101562 L 310.5 576.308594 L 246.292969 576.308594 Z M 246.292969 512.101562 " clip-rule="nonzero"/></clipPath><clipPath id="7676cea9f1"><path d="M 246.777344 576.15625 L 247.660156 574.273438 C 256.996094 556.726562 265.96875 539.878906 274.96875 523.03125 C 279.316406 514.882812 287.800781 511.203125 296.5 513.605469 C 304.953125 515.945312 310.671875 523.945312 310 532.914062 C 309.546875 539.058594 306.929688 544.226562 301.363281 547.238281 L 248.359375 575.550781 C 248.023438 575.730469 247.660156 575.824219 246.777344 576.15625 " clip-rule="nonzero"/></clipPath><clipPath id="8683c5d20d"><path d="M 286 440 L 337.820312 440 L 337.820312 498 L 286 498 Z M 286 440 " clip-rule="nonzero"/></clipPath><clipPath id="9050a7cf40"><path d="M 305.835938 440.769531 L 337.1875 472.125 C 328.671875 480.609375 320.007812 489.277344 311.644531 497.609375 L 286.707031 472.671875 C 292.820312 462.484375 299.328125 451.628906 305.835938 440.769531 " clip-rule="nonzero"/></clipPath><clipPath id="e2e4c432b6"><path d="M 325 485 L 382.902344 485 L 382.902344 536.691406 L 325 536.691406 Z M 325 485 " clip-rule="nonzero"/></clipPath><clipPath id="3222014cbe"><path d="M 351.480469 485.898438 L 352.089844 486.386719 C 362.519531 496.789062 372.433594 506.699219 382.652344 516.886719 L 349.929688 536.5625 C 341.535156 528.171875 333.296875 519.992188 325.328125 512.023438 L 351.480469 485.898438 " clip-rule="nonzero"/></clipPath><clipPath id="34973432b7"><path d="M 418 367 L 456 367 L 456 405 L 418 405 Z M 418 367 " clip-rule="nonzero"/></clipPath><clipPath id="cca9afcbfe"><path d="M 455.726562 385.851562 C 455.757812 396.21875 447.609375 404.523438 437.238281 404.644531 C 426.867188 404.765625 418.324219 396.25 418.351562 385.851562 C 418.414062 375.511719 426.683594 367.269531 437.054688 367.269531 C 447.457031 367.269531 455.667969 375.449219 455.726562 385.851562 " clip-rule="nonzero"/></clipPath></defs><g clip-path="url(#3e3ae013eb)"><g clip-path="url(#9e54d462f4)"><path fill="#000000" d="M 108.109375 108.109375 L 701.890625 108.109375 L 701.890625 701.890625 L 108.109375 701.890625 Z M 108.109375 108.109375 " fill-opacity="1" fill-rule="nonzero"/></g></g><g clip-path="url(#70ec4ec673)"><g clip-path="url(#16fbadebdc)"><path fill="#c0ff00" d="M 229.902344 242.984375 L 579.617188 242.984375 L 579.617188 592.703125 L 229.902344 592.703125 Z M 229.902344 242.984375 " fill-opacity="1" fill-rule="nonzero"/></g></g><g clip-path="url(#6dba48efbd)"><g clip-path="url(#ef8d6b6dcc)"><path fill="#c0ff00" d="M 229.902344 242.984375 L 579.617188 242.984375 L 579.617188 592.703125 L 229.902344 592.703125 Z M 229.902344 242.984375 " fill-opacity="1" fill-rule="nonzero"/></g></g><g clip-path="url(#389b672aae)"><g clip-path="url(#b1f7309595)"><path fill="#c0ff00" d="M 229.902344 242.984375 L 579.617188 242.984375 L 579.617188 592.703125 L 229.902344 592.703125 Z M 229.902344 242.984375 " fill-opacity="1" fill-rule="nonzero"/></g></g><g clip-path="url(#a0c9378b04)"><g clip-path="url(#dac2799bda)"><path fill="#c0ff00" d="M 229.902344 242.984375 L 579.617188 242.984375 L 579.617188 592.703125 L 229.902344 592.703125 Z M 229.902344 242.984375 " fill-opacity="1" fill-rule="nonzero"/></g></g><g clip-path="url(#52fea54f9e)"><g clip-path="url(#7676cea9f1)"><path fill="#c0ff00" d="M 229.902344 242.984375 L 579.617188 242.984375 L 579.617188 592.703125 L 229.902344 592.703125 Z M 229.902344 242.984375 " fill-opacity="1" fill-rule="nonzero"/></g></g><g clip-path="url(#8683c5d20d)"><g clip-path="url(#9050a7cf40)"><path fill="#c0ff00" d="M 229.902344 242.984375 L 579.617188 242.984375 L 579.617188 592.703125 L 229.902344 592.703125 Z M 229.902344 242.984375 " fill-opacity="1" fill-rule="nonzero"/></g></g><g clip-path="url(#e2e4c432b6)"><g clip-path="url(#3222014cbe)"><path fill="#c0ff00" d="M 229.902344 242.984375 L 579.617188 242.984375 L 579.617188 592.703125 L 229.902344 592.703125 Z M 229.902344 242.984375 " fill-opacity="1" fill-rule="nonzero"/></g></g><g clip-path="url(#34973432b7)"><g clip-path="url(#cca9afcbfe)"><path fill="#c0ff00" d="M 229.902344 242.984375 L 579.617188 242.984375 L 579.617188 592.703125 L 229.902344 592.703125 Z M 229.902344 242.984375 " fill-opacity="1" fill-rule="nonzero"/></g></g></svg>