<svg xmlns="http://www.w3.org/2000/svg" xmlns:xlink="http://www.w3.org/1999/xlink" width="1080" zoomAndPan="magnify" viewBox="0 0 810 809.999993" height="1080" preserveAspectRatio="xMidYMid meet" version="1.0"><defs><clipPath id="d0dcca7fd2"><path d="M 165.402344 156.878906 L 644.597656 156.878906 L 644.597656 636.070312 L 165.402344 636.070312 Z M 165.402344 156.878906 " clip-rule="nonzero"/></clipPath><clipPath id="15c0a23df5"><path d="M 405 156.878906 C 272.675781 156.878906 165.402344 264.148438 165.402344 396.472656 C 165.402344 528.800781 272.675781 636.070312 405 636.070312 C 537.324219 636.070312 644.597656 528.800781 644.597656 396.472656 C 644.597656 264.148438 537.324219 156.878906 405 156.878906 Z M 405 156.878906 " clip-rule="nonzero"/></clipPath><clipPath id="cc6f342c31"><path d="M 73.90625 73.90625 L 736.15625 73.90625 L 736.15625 736.15625 L 73.90625 736.15625 Z M 73.90625 73.90625 " clip-rule="nonzero"/></clipPath></defs><g clip-path="url(#d0dcca7fd2)"><g clip-path="url(#15c0a23df5)"><path fill="#000000" d="M 165.402344 156.878906 L 644.597656 156.878906 L 644.597656 636.070312 L 165.402344 636.070312 Z M 165.402344 156.878906 " fill-opacity="1" fill-rule="nonzero"/></g></g><g clip-path="url(#cc6f342c31)"><path fill="#c1ff00" d="M 404.996094 73.90625 C 222.109375 73.90625 73.90625 222.109375 73.90625 404.996094 C 73.90625 587.882812 222.109375 736.085938 404.996094 736.085938 C 587.882812 736.085938 736.085938 587.882812 736.085938 404.996094 C 735.800781 222.109375 587.597656 73.90625 404.996094 73.90625 Z M 595.625 497.585938 C 591.898438 521.953125 570.683594 539.726562 546.03125 539.726562 L 263.671875 539.726562 C 239.019531 539.726562 217.808594 521.953125 214.082031 497.585938 C 210.640625 474.941406 207.203125 443.40625 206.914062 404.710938 C 207.203125 366.011719 210.355469 334.765625 214.082031 311.832031 C 217.808594 287.464844 239.019531 269.695312 263.671875 269.695312 L 546.03125 269.695312 C 570.683594 269.695312 591.898438 287.464844 595.625 311.832031 C 599.0625 334.476562 602.503906 366.011719 602.789062 404.710938 C 602.503906 443.40625 599.0625 474.941406 595.625 497.585938 Z M 595.625 497.585938 " fill-opacity="1" fill-rule="nonzero"/></g><path fill="#c1ff00" d="M 363.144531 351.105469 L 363.144531 458.601562 L 463.1875 404.996094 Z M 363.144531 351.105469 " fill-opacity="1" fill-rule="nonzero"/></svg>