<svg xmlns="http://www.w3.org/2000/svg" xmlns:xlink="http://www.w3.org/1999/xlink" width="1080" zoomAndPan="magnify" viewBox="0 0 810 809.999993" height="1080" preserveAspectRatio="xMidYMid meet" version="1.0"><defs><clipPath id="d413ef3d18"><path d="M 117.867188 198 L 225.828125 198 L 225.828125 612.03125 L 117.867188 612.03125 Z M 117.867188 198 " clip-rule="nonzero"/></clipPath><clipPath id="0dbf3085dd"><path d="M 583.011719 197.980469 L 692.121094 197.980469 L 692.121094 612.03125 L 583.011719 612.03125 Z M 583.011719 197.980469 " clip-rule="nonzero"/></clipPath></defs><path fill="#ffffff" d="M 318.726562 505.890625 C 315.226562 505.890625 311.726562 504.558594 309.058594 501.890625 C 283.433594 476.261719 269.316406 442.195312 269.316406 405.953125 C 269.316406 369.710938 283.433594 335.636719 309.058594 310.011719 C 314.398438 304.671875 323.054688 304.671875 328.390625 310.011719 C 333.734375 315.351562 333.734375 324.011719 328.394531 329.347656 C 307.933594 349.8125 296.660156 377.015625 296.660156 405.953125 C 296.660156 434.886719 307.933594 462.089844 328.394531 482.550781 C 333.734375 487.890625 333.734375 496.546875 328.394531 501.890625 C 325.726562 504.558594 322.222656 505.890625 318.726562 505.890625 " fill-opacity="1" fill-rule="nonzero"/><path fill="#ffffff" d="M 492.210938 504.929688 C 488.761719 504.929688 485.3125 503.636719 482.652344 501.03125 C 477.25 495.753906 477.15625 487.097656 482.4375 481.695312 C 502.355469 461.335938 513.320312 434.4375 513.320312 405.953125 C 513.320312 376.5625 501.75 349.0625 480.742188 328.503906 C 475.34375 323.226562 475.25 314.570312 480.53125 309.171875 C 485.808594 303.777344 494.460938 303.679688 499.863281 308.957031 C 526.179688 334.699219 540.671875 369.148438 540.671875 405.953125 C 540.671875 441.628906 526.933594 475.320312 501.984375 500.816406 C 499.3125 503.558594 495.761719 504.929688 492.210938 504.929688 " fill-opacity="1" fill-rule="nonzero"/><path fill="#ffffff" d="M 282.078125 540.632812 C 278.542969 540.632812 275.011719 539.269531 272.332031 536.550781 C 237.832031 501.507812 218.832031 455.128906 218.832031 405.953125 C 218.832031 356.226562 238.195312 309.480469 273.359375 274.320312 C 278.703125 268.976562 287.355469 268.980469 292.695312 274.320312 C 298.035156 279.65625 298.035156 288.3125 292.695312 293.65625 C 262.699219 323.652344 246.175781 363.53125 246.175781 405.953125 C 246.175781 447.90625 262.390625 487.476562 291.820312 517.367188 C 297.113281 522.746094 297.050781 531.40625 291.667969 536.703125 C 289.007812 539.324219 285.539062 540.632812 282.078125 540.632812 " fill-opacity="1" fill-rule="nonzero"/><path fill="#ffffff" d="M 527.921875 540.625 C 524.453125 540.625 520.988281 539.320312 518.328125 536.695312 C 512.945312 531.402344 512.878906 522.742188 518.175781 517.359375 C 547.601562 487.464844 563.808594 447.902344 563.808594 405.953125 C 563.808594 363.0625 546.976562 322.875 516.414062 292.785156 C 511.035156 287.488281 510.964844 278.828125 516.265625 273.449219 C 521.558594 268.066406 530.21875 268.003906 535.601562 273.296875 C 571.425781 308.566406 591.15625 355.679688 591.15625 405.953125 C 591.15625 455.125 572.15625 501.503906 537.660156 536.542969 C 534.988281 539.261719 531.453125 540.625 527.921875 540.625 " fill-opacity="1" fill-rule="nonzero"/><path fill="#ffffff" d="M 246.386719 576.339844 C 242.863281 576.339844 239.335938 574.980469 236.660156 572.277344 C 192.609375 527.695312 168.351562 468.628906 168.351562 405.953125 C 168.351562 342.746094 192.964844 283.3125 237.660156 238.621094 C 243 233.28125 251.65625 233.28125 257 238.621094 C 262.335938 243.960938 262.335938 252.613281 257 257.957031 C 217.464844 297.488281 195.695312 350.042969 195.695312 405.953125 C 195.695312 461.386719 217.15625 513.628906 256.113281 553.054688 C 261.421875 558.425781 261.367188 567.085938 255.996094 572.394531 C 253.332031 575.027344 249.859375 576.339844 246.386719 576.339844 " fill-opacity="1" fill-rule="nonzero"/><path fill="#ffffff" d="M 563.609375 576.332031 C 560.136719 576.332031 556.664062 575.015625 554 572.382812 C 548.628906 567.078125 548.574219 558.417969 553.882812 553.046875 C 592.839844 513.621094 614.292969 461.382812 614.292969 405.953125 C 614.292969 349.578125 592.207031 296.703125 552.097656 257.070312 C 546.726562 251.761719 546.679688 243.101562 551.984375 237.734375 C 557.289062 232.359375 565.945312 232.3125 571.316406 237.621094 C 616.664062 282.429688 641.636719 342.210938 641.636719 405.953125 C 641.636719 468.625 617.382812 527.691406 573.335938 572.265625 C 570.660156 574.972656 567.136719 576.332031 563.609375 576.332031 " fill-opacity="1" fill-rule="nonzero"/><g clip-path="url(#d413ef3d18)"><path fill="#ffffff" d="M 210.671875 612.019531 C 207.15625 612.019531 203.632812 610.671875 200.960938 607.96875 C 147.375 553.859375 117.867188 482.113281 117.867188 405.953125 C 117.867188 329.257812 147.734375 257.15625 201.964844 202.921875 C 207.304688 197.585938 215.960938 197.585938 221.300781 202.921875 C 226.640625 208.261719 226.640625 216.917969 221.300781 222.257812 C 172.234375 271.320312 145.210938 336.5625 145.210938 405.953125 C 145.210938 474.859375 171.910156 539.773438 220.390625 588.726562 C 225.707031 594.09375 225.660156 602.75 220.296875 608.0625 C 217.628906 610.707031 214.152344 612.019531 210.671875 612.019531 " fill-opacity="1" fill-rule="nonzero"/></g><g clip-path="url(#0dbf3085dd)"><path fill="#ffffff" d="M 599.308594 612.03125 C 595.832031 612.03125 592.351562 610.710938 589.6875 608.066406 C 584.324219 602.757812 584.277344 594.097656 589.59375 588.730469 C 638.074219 539.773438 664.777344 474.859375 664.777344 405.953125 C 664.777344 336.085938 637.4375 270.53125 587.789062 221.363281 C 582.425781 216.050781 582.386719 207.390625 587.695312 202.03125 C 593.007812 196.664062 601.667969 196.621094 607.03125 201.9375 C 661.902344 256.28125 692.121094 328.734375 692.121094 405.953125 C 692.121094 482.113281 662.609375 553.859375 609.023438 607.972656 C 606.351562 610.675781 602.828125 612.03125 599.308594 612.03125 " fill-opacity="1" fill-rule="nonzero"/></g><path fill="#ffffff" d="M 463.410156 406.894531 C 463.410156 439.425781 437.039062 465.796875 404.515625 465.796875 C 371.988281 465.796875 345.617188 439.425781 345.617188 406.894531 C 345.617188 374.371094 371.988281 348 404.515625 348 C 437.039062 348 463.410156 374.371094 463.410156 406.894531 " fill-opacity="1" fill-rule="nonzero"/></svg>