<svg xmlns="http://www.w3.org/2000/svg" xmlns:xlink="http://www.w3.org/1999/xlink" width="1080" zoomAndPan="magnify" viewBox="0 0 810 809.999993" height="1080" preserveAspectRatio="xMidYMid meet" version="1.0"><defs><clipPath id="a2723115af"><path d="M 165.402344 149.785156 L 644.597656 149.785156 L 644.597656 628.976562 L 165.402344 628.976562 Z M 165.402344 149.785156 " clip-rule="nonzero"/></clipPath><clipPath id="0cfb88b396"><path d="M 405 149.785156 C 272.675781 149.785156 165.402344 257.054688 165.402344 389.378906 C 165.402344 521.707031 272.675781 628.976562 405 628.976562 C 537.324219 628.976562 644.597656 521.707031 644.597656 389.378906 C 644.597656 257.054688 537.324219 149.785156 405 149.785156 Z M 405 149.785156 " clip-rule="nonzero"/></clipPath><clipPath id="1dc0ae2fe7"><path d="M 73.90625 66.8125 L 736.15625 66.8125 L 736.15625 729.0625 L 73.90625 729.0625 Z M 73.90625 66.8125 " clip-rule="nonzero"/></clipPath></defs><g clip-path="url(#a2723115af)"><g clip-path="url(#0cfb88b396)"><path fill="#ffffff" d="M 165.402344 149.785156 L 644.597656 149.785156 L 644.597656 628.976562 L 165.402344 628.976562 Z M 165.402344 149.785156 " fill-opacity="1" fill-rule="nonzero"/></g></g><g clip-path="url(#1dc0ae2fe7)"><path fill="#000000" d="M 405.03125 66.8125 C 222.125 66.8125 73.90625 215.03125 73.90625 397.9375 C 73.90625 580.84375 222.125 729.0625 405.03125 729.0625 C 587.9375 729.0625 736.15625 580.84375 736.15625 397.9375 C 735.871094 215.03125 587.652344 66.8125 405.03125 66.8125 Z M 595.679688 490.539062 C 591.953125 514.90625 570.738281 532.679688 546.082031 532.679688 L 263.695312 532.679688 C 239.039062 532.679688 217.824219 514.90625 214.097656 490.539062 C 210.65625 467.890625 207.214844 436.355469 206.929688 397.652344 C 207.214844 358.949219 210.371094 327.699219 214.097656 304.761719 C 217.824219 280.394531 239.039062 262.621094 263.695312 262.621094 L 546.082031 262.621094 C 570.738281 262.621094 591.953125 280.394531 595.679688 304.761719 C 599.117188 327.410156 602.558594 358.949219 602.847656 397.652344 C 602.558594 436.355469 599.117188 467.890625 595.679688 490.539062 Z M 595.679688 490.539062 " fill-opacity="1" fill-rule="nonzero"/></g><path fill="#000000" d="M 363.175781 344.039062 L 363.175781 451.546875 L 463.230469 397.9375 Z M 363.175781 344.039062 " fill-opacity="1" fill-rule="nonzero"/></svg>