<svg xmlns="http://www.w3.org/2000/svg" xmlns:xlink="http://www.w3.org/1999/xlink" width="1080" zoomAndPan="magnify" viewBox="0 0 810 809.999993" height="1080" preserveAspectRatio="xMidYMid meet" version="1.0"><defs><clipPath id="ada04550b3"><path d="M 75.414062 81 L 729 81 L 729 734.585938 L 75.414062 734.585938 Z M 75.414062 81 " clip-rule="nonzero"/></clipPath><clipPath id="e68d8e6685"><path d="M 402.207031 81 C 221.722656 81 75.414062 227.308594 75.414062 407.792969 C 75.414062 588.277344 221.722656 734.585938 402.207031 734.585938 C 582.691406 734.585938 729 588.277344 729 407.792969 C 729 227.308594 582.691406 81 402.207031 81 Z M 402.207031 81 " clip-rule="nonzero"/></clipPath><clipPath id="c32579d1b7"><path d="M 165.566406 171.15625 L 638.816406 171.15625 L 638.816406 644.40625 L 165.566406 644.40625 Z M 165.566406 171.15625 " clip-rule="nonzero"/></clipPath></defs><g clip-path="url(#ada04550b3)"><g clip-path="url(#e68d8e6685)"><path fill="#c1ff00" d="M 75.414062 81 L 729 81 L 729 734.585938 L 75.414062 734.585938 Z M 75.414062 81 " fill-opacity="1" fill-rule="nonzero"/></g></g><g clip-path="url(#c32579d1b7)"><path fill="#000000" d="M 594.714844 503.335938 C 593.660156 526.40625 589.804688 538.941406 586.601562 547.265625 C 582.296875 558.300781 577.164062 566.195312 568.839844 574.472656 C 560.609375 582.75 552.714844 587.871094 541.675781 592.125 C 533.351562 595.375 520.769531 599.25 497.703125 600.347656 C 472.761719 601.445312 465.371094 601.679688 402.128906 601.679688 C 338.941406 601.679688 331.496094 601.445312 306.554688 600.347656 C 283.484375 599.25 270.964844 595.375 262.636719 592.125 C 251.542969 587.871094 243.707031 582.75 235.429688 574.472656 C 227.09375 566.195312 221.960938 558.300781 217.714844 547.265625 C 214.511719 538.941406 210.59375 526.40625 209.601562 503.335938 C 208.386719 478.394531 208.164062 470.890625 208.164062 407.773438 C 208.164062 344.53125 208.386719 337.082031 209.601562 312.140625 C 210.59375 289.074219 214.511719 276.550781 217.714844 268.15625 C 221.960938 257.128906 227.09375 249.285156 235.429688 241.003906 C 243.707031 232.738281 251.542969 227.605469 262.636719 223.304688 C 270.964844 220.042969 283.484375 216.230469 306.554688 215.128906 C 331.496094 214.03125 338.941406 213.75 402.128906 213.75 C 465.371094 213.75 472.761719 214.03125 497.703125 215.128906 C 520.769531 216.230469 533.351562 220.042969 541.675781 223.304688 C 552.714844 227.605469 560.609375 232.738281 568.839844 241.003906 C 577.164062 249.285156 582.296875 257.128906 586.601562 268.15625 C 589.804688 276.550781 593.660156 289.074219 594.714844 312.140625 C 595.871094 337.082031 596.152344 344.53125 596.152344 407.773438 C 596.152344 470.890625 595.871094 478.394531 594.714844 503.335938 Z M 637.308594 310.199219 C 636.148438 284.992188 632.175781 267.769531 626.273438 252.769531 C 620.261719 237.207031 612.207031 224.015625 599.015625 210.828125 C 585.886719 197.695312 572.695312 189.640625 557.132812 183.5625 C 542.074219 177.714844 524.910156 173.691406 499.6875 172.59375 C 474.46875 171.378906 466.414062 171.15625 402.128906 171.15625 C 337.902344 171.15625 329.789062 171.378906 304.566406 172.59375 C 279.40625 173.691406 262.253906 177.714844 247.121094 183.5625 C 231.617188 189.640625 218.429688 197.695312 205.300781 210.828125 C 192.109375 224.015625 184.054688 237.207031 177.984375 252.769531 C 172.140625 267.769531 168.164062 284.992188 166.949219 310.199219 C 165.847656 335.421875 165.566406 343.488281 165.566406 407.773438 C 165.566406 472 165.847656 480.054688 166.949219 505.277344 C 168.164062 530.4375 172.140625 547.652344 177.984375 562.71875 C 184.054688 578.222656 192.109375 591.472656 205.300781 604.605469 C 218.429688 617.730469 231.617188 625.851562 247.121094 631.914062 C 262.253906 637.761719 279.40625 641.738281 304.566406 642.894531 C 329.789062 644.054688 337.902344 644.332031 402.128906 644.332031 C 466.414062 644.332031 474.46875 644.054688 499.6875 642.894531 C 524.910156 641.738281 542.074219 637.761719 557.132812 631.914062 C 572.695312 625.851562 585.886719 617.730469 599.015625 604.605469 C 612.207031 591.472656 620.261719 578.222656 626.273438 562.71875 C 632.175781 547.652344 636.148438 530.4375 637.308594 505.277344 C 638.46875 480.054688 638.746094 472 638.746094 407.773438 C 638.746094 343.488281 638.46875 335.421875 637.308594 310.199219 Z M 637.308594 310.199219 " fill-opacity="1" fill-rule="nonzero"/></g><path fill="#000000" d="M 402.128906 486.570312 C 358.597656 486.570312 323.273438 451.304688 323.273438 407.773438 C 323.273438 364.171875 358.597656 328.863281 402.128906 328.863281 C 445.671875 328.863281 481.039062 364.171875 481.039062 407.773438 C 481.039062 451.304688 445.671875 486.570312 402.128906 486.570312 Z M 402.128906 286.207031 C 335.027344 286.207031 280.679688 340.671875 280.679688 407.773438 C 280.679688 474.816406 335.027344 529.222656 402.128906 529.222656 C 469.230469 529.222656 523.632812 474.816406 523.632812 407.773438 C 523.632812 340.671875 469.230469 286.207031 402.128906 286.207031 Z M 402.128906 286.207031 " fill-opacity="1" fill-rule="nonzero"/></svg>