<svg xmlns="http://www.w3.org/2000/svg" xmlns:xlink="http://www.w3.org/1999/xlink" width="1080" zoomAndPan="magnify" viewBox="0 0 810 809.999993" height="1080" preserveAspectRatio="xMidYMid meet" version="1.0"><defs><clipPath id="47fe1faf6b"><path d="M 168.363281 168.363281 L 641.613281 168.363281 L 641.613281 641.613281 L 168.363281 641.613281 Z M 168.363281 168.363281 " clip-rule="nonzero"/></clipPath></defs><g clip-path="url(#47fe1faf6b)"><path fill="#000000" d="M 597.507812 500.542969 C 596.457031 523.613281 592.597656 536.144531 589.394531 544.46875 C 585.089844 555.507812 579.957031 563.402344 571.632812 571.679688 C 563.402344 579.957031 555.507812 585.078125 544.46875 589.332031 C 536.144531 592.582031 523.5625 596.457031 500.496094 597.554688 C 475.554688 598.652344 468.167969 598.886719 404.921875 598.886719 C 341.738281 598.886719 334.289062 598.652344 309.347656 597.554688 C 286.28125 596.457031 273.757812 592.582031 265.429688 589.332031 C 254.335938 585.078125 246.503906 579.957031 238.222656 571.679688 C 229.886719 563.402344 224.753906 555.507812 220.511719 544.46875 C 217.304688 536.144531 213.390625 523.613281 212.394531 500.542969 C 211.179688 475.601562 210.957031 468.097656 210.957031 404.980469 C 210.957031 341.738281 211.179688 334.289062 212.394531 309.347656 C 213.390625 286.28125 217.304688 273.757812 220.511719 265.363281 C 224.753906 254.335938 229.886719 246.488281 238.222656 238.210938 C 246.503906 229.945312 254.335938 224.8125 265.429688 220.511719 C 273.757812 217.246094 286.28125 213.4375 309.347656 212.335938 C 334.289062 211.238281 341.738281 210.957031 404.921875 210.957031 C 468.167969 210.957031 475.554688 211.238281 500.496094 212.335938 C 523.5625 213.4375 536.144531 217.246094 544.46875 220.511719 C 555.507812 224.8125 563.402344 229.945312 571.632812 238.210938 C 579.957031 246.488281 585.089844 254.335938 589.394531 265.363281 C 592.597656 273.757812 596.457031 286.28125 597.507812 309.347656 C 598.664062 334.289062 598.945312 341.738281 598.945312 404.980469 C 598.945312 468.097656 598.664062 475.601562 597.507812 500.542969 Z M 640.101562 307.40625 C 638.945312 282.199219 634.96875 264.976562 629.066406 249.976562 C 623.054688 234.414062 615 221.222656 601.808594 208.035156 C 588.679688 194.902344 575.492188 186.847656 559.925781 180.769531 C 544.867188 174.921875 527.703125 170.898438 502.484375 169.800781 C 477.261719 168.582031 469.207031 168.363281 404.921875 168.363281 C 340.695312 168.363281 332.582031 168.582031 307.359375 169.800781 C 282.199219 170.898438 265.046875 174.921875 249.917969 180.769531 C 234.410156 186.847656 221.222656 194.902344 208.09375 208.035156 C 194.902344 221.222656 186.847656 234.414062 180.777344 249.976562 C 174.933594 264.976562 170.957031 282.199219 169.742188 307.40625 C 168.640625 332.628906 168.363281 340.695312 168.363281 404.980469 C 168.363281 469.207031 168.640625 477.261719 169.742188 502.484375 C 170.957031 527.644531 174.933594 544.859375 180.777344 559.925781 C 186.847656 575.429688 194.902344 588.679688 208.09375 601.8125 C 221.222656 614.9375 234.410156 623.054688 249.917969 629.121094 C 265.046875 634.96875 282.199219 638.945312 307.359375 640.101562 C 332.582031 641.261719 340.695312 641.539062 404.921875 641.539062 C 469.207031 641.539062 477.261719 641.261719 502.484375 640.101562 C 527.703125 638.945312 544.867188 634.96875 559.925781 629.121094 C 575.492188 623.054688 588.679688 614.9375 601.808594 601.8125 C 615 588.679688 623.054688 575.429688 629.066406 559.925781 C 634.96875 544.859375 638.945312 527.644531 640.101562 502.484375 C 641.261719 477.261719 641.539062 469.207031 641.539062 404.980469 C 641.539062 340.695312 641.261719 332.628906 640.101562 307.40625 Z M 640.101562 307.40625 " fill-opacity="1" fill-rule="nonzero"/></g><path fill="#000000" d="M 404.921875 483.773438 C 361.390625 483.773438 326.070312 448.511719 326.070312 404.980469 C 326.070312 361.378906 361.390625 326.070312 404.921875 326.070312 C 448.464844 326.070312 483.832031 361.378906 483.832031 404.980469 C 483.832031 448.511719 448.464844 483.773438 404.921875 483.773438 Z M 404.921875 283.414062 C 337.820312 283.414062 283.472656 337.878906 283.472656 404.980469 C 283.472656 472.023438 337.820312 526.429688 404.921875 526.429688 C 472.023438 526.429688 526.429688 472.023438 526.429688 404.980469 C 526.429688 337.878906 472.023438 283.414062 404.921875 283.414062 Z M 404.921875 283.414062 " fill-opacity="1" fill-rule="nonzero"/></svg>