<svg xmlns="http://www.w3.org/2000/svg" xmlns:xlink="http://www.w3.org/1999/xlink" width="1080" zoomAndPan="magnify" viewBox="0 0 810 809.999993" height="1080" preserveAspectRatio="xMidYMid meet" version="1.0"><defs><clipPath id="e8d482f584"><path d="M 170.03125 179 L 640 179 L 640 630.734375 L 170.03125 630.734375 Z M 170.03125 179 " clip-rule="nonzero"/></clipPath><clipPath id="979e88edb8"><path d="M 490.886719 434.496094 C 489.085938 435.421875 488.292969 436.507812 487.386719 437.421875 L 397.730469 527.140625 C 381.257812 543.628906 364.792969 560.109375 348.320312 576.589844 L 345.453125 579.320312 C 341.457031 582.554688 336.28125 582.660156 332.140625 579.515625 L 327.609375 575.398438 C 300.410156 548.25 273.21875 521.074219 246.027344 493.914062 L 241.96875 489.820312 C 240.996094 488.769531 240.023438 487.675781 239.261719 486.464844 C 236.621094 482.285156 237 477.5625 240.226562 473.792969 L 243.230469 470.691406 C 289.246094 424.636719 335.261719 378.582031 381.257812 332.511719 C 382.253906 331.511719 383.527344 330.726562 384.027344 329.292969 C 382.699219 328.078125 381.085938 328.6875 379.621094 328.6875 L 185.039062 328.742188 C 183.597656 328.742188 182.152344 328.792969 180.71875 328.703125 C 174.375 328.289062 170.308594 324.082031 170.105469 317.761719 L 170.089844 314.523438 C 170.066406 277.890625 170.050781 241.25 170.03125 204.621094 L 170.039062 201.015625 C 169.839844 192.652344 176.3125 182.402344 187.632812 180.0625 C 189.511719 179.671875 191.414062 179.386719 193.351562 179.460938 L 195.515625 179.460938 C 335.082031 179.394531 474.65625 179.332031 614.230469 179.265625 C 616.75 179.265625 619.269531 179.226562 621.757812 179.777344 C 630.792969 181.785156 636.609375 187.214844 639.195312 196.085938 L 639.710938 199.636719 C 639.808594 201.191406 639.777344 202.757812 639.785156 204.320312 L 639.972656 605.734375 C 639.972656 606.8125 639.957031 607.898438 639.964844 608.976562 C 640.09375 621.753906 628.449219 630.8125 618.070312 630.722656 C 593.324219 630.511719 568.582031 630.675781 543.84375 630.691406 L 504.207031 630.707031 C 503.128906 630.707031 502.042969 630.742188 500.964844 630.667969 C 495.511719 630.269531 491.347656 626.066406 491.015625 620.621094 L 490.972656 616.292969 C 490.941406 557.316406 490.917969 498.34375 490.894531 439.367188 C 490.894531 437.933594 490.894531 436.507812 490.894531 434.488281 " clip-rule="nonzero"/></clipPath></defs><g clip-path="url(#e8d482f584)"><g clip-path="url(#979e88edb8)"><path fill="#c1ff00" d="M 170.03125 179.265625 L 640.109375 179.265625 L 640.109375 630.734375 L 170.03125 630.734375 Z M 170.03125 179.265625 " fill-opacity="1" fill-rule="nonzero"/></g></g></svg>