<svg xmlns="http://www.w3.org/2000/svg" xmlns:xlink="http://www.w3.org/1999/xlink" width="1080" zoomAndPan="magnify" viewBox="0 0 810 809.999993" height="1080" preserveAspectRatio="xMidYMid meet" version="1.0"><defs><clipPath id="7936e9984d"><path d="M 388 118.097656 L 422 118.097656 L 422 190 L 388 190 Z M 388 118.097656 " clip-rule="nonzero"/></clipPath><clipPath id="79b135a193"><path d="M 160.058594 346 L 235 346 L 235 380 L 160.058594 380 Z M 160.058594 346 " clip-rule="nonzero"/></clipPath><clipPath id="20d702652d"><path d="M 369 674 L 441 674 L 441 691.847656 L 369 691.847656 Z M 369 674 " clip-rule="nonzero"/></clipPath><clipPath id="72e4a0c22c"><path d="M 575 346.726562 L 649.808594 346.726562 L 649.808594 380 L 575 380 Z M 575 346.726562 " clip-rule="nonzero"/></clipPath></defs><path fill="#000000" d="M 536.910156 254.214844 L 578.085938 213.019531 C 584.445312 206.65625 584.445312 196.304688 578.085938 189.9375 C 571.703125 183.558594 561.375 183.558594 554.992188 189.9375 L 514.386719 230.550781 C 522.589844 237.667969 530.074219 245.628906 536.910156 254.214844 " fill-opacity="1" fill-rule="nonzero"/><g clip-path="url(#7936e9984d)"><path fill="#000000" d="M 404.925781 188.953125 C 405.074219 188.953125 405.210938 188.953125 405.382812 188.953125 C 410.757812 188.953125 416.035156 189.292969 421.257812 189.84375 L 421.257812 134.515625 C 421.257812 125.511719 413.945312 118.21875 404.925781 118.21875 C 395.90625 118.21875 388.632812 125.511719 388.632812 134.515625 L 388.632812 189.84375 C 393.832031 189.292969 399.113281 188.953125 404.46875 188.953125 C 404.621094 188.953125 404.773438 188.953125 404.925781 188.953125 " fill-opacity="1" fill-rule="nonzero"/></g><path fill="#000000" d="M 272.957031 254.234375 C 279.777344 245.652344 287.238281 237.667969 295.421875 230.550781 L 254.84375 189.9375 C 248.480469 183.558594 238.128906 183.558594 231.769531 189.9375 C 225.367188 196.304688 225.367188 206.65625 231.769531 213.019531 L 272.957031 254.234375 " fill-opacity="1" fill-rule="nonzero"/><g clip-path="url(#79b135a193)"><path fill="#000000" d="M 232.828125 370.027344 C 232.828125 362.140625 233.476562 354.410156 234.40625 346.8125 L 176.371094 346.8125 C 167.351562 346.8125 160.058594 354.125 160.058594 363.128906 C 160.058594 372.152344 167.351562 379.464844 176.371094 379.464844 L 233.039062 379.464844 C 232.945312 376.371094 232.828125 373.234375 232.828125 370.027344 " fill-opacity="1" fill-rule="nonzero"/></g><path fill="#000000" d="M 231.769531 513.222656 C 225.367188 519.582031 225.367188 529.933594 231.769531 536.320312 C 238.128906 542.703125 248.480469 542.703125 254.84375 536.320312 L 284.753906 506.402344 C 278.011719 498.804688 270.960938 490.394531 264.355469 480.644531 L 231.769531 513.222656 " fill-opacity="1" fill-rule="nonzero"/><g clip-path="url(#20d702652d)"><path fill="#000000" d="M 412.21875 674.730469 L 369.394531 674.730469 C 369.375 675.226562 369.300781 675.660156 369.300781 676.152344 C 369.300781 684.761719 382.515625 691.730469 394.765625 691.730469 L 415.085938 691.730469 C 427.335938 691.730469 440.535156 684.761719 440.535156 676.152344 C 440.535156 675.660156 440.476562 675.226562 440.476562 674.730469 L 412.21875 674.730469 " fill-opacity="1" fill-rule="nonzero"/></g><path fill="#000000" d="M 446.511719 635.070312 L 363.355469 635.070312 C 354.753906 635.070312 347.785156 642.058594 347.785156 650.644531 C 347.785156 659.25 354.753906 666.261719 363.355469 666.261719 L 446.511719 666.261719 C 455.097656 666.261719 462.070312 659.25 462.070312 650.644531 C 462.070312 642.058594 455.097656 635.070312 446.511719 635.070312 " fill-opacity="1" fill-rule="nonzero"/><path fill="#000000" d="M 446.511719 595.734375 L 363.355469 595.734375 C 354.753906 595.734375 347.785156 602.707031 347.785156 611.324219 C 347.785156 619.914062 354.753906 626.902344 363.355469 626.902344 L 446.511719 626.902344 C 455.097656 626.902344 462.070312 619.914062 462.070312 611.324219 C 462.070312 602.707031 455.097656 595.734375 446.511719 595.734375 " fill-opacity="1" fill-rule="nonzero"/><path fill="#000000" d="M 396.550781 284.855469 C 377.671875 285.59375 364.816406 290.722656 355.019531 297.710938 C 345.253906 304.722656 338.398438 314.066406 333.5 324.054688 C 323.664062 343.945312 322.832031 365.996094 322.886719 367.480469 L 322.886719 367.496094 C 322.886719 376.804688 315.328125 384.363281 306.039062 384.363281 C 296.734375 384.363281 289.175781 376.804688 289.175781 367.496094 C 289.175781 366.773438 289.214844 358.210938 291.453125 345.847656 C 293.714844 333.5 298.140625 317.257812 307.523438 301.246094 C 313.769531 290.609375 322.316406 280.070312 333.878906 271.40625 C 349.261719 259.820312 369.90625 252.011719 395.371094 251.175781 C 404.675781 250.851562 412.480469 258.128906 412.804688 267.4375 C 413.148438 276.726562 405.875 284.550781 396.550781 284.855469 Z M 554.347656 370.027344 C 554.363281 336.160156 543.082031 304.835938 524.113281 279.785156 C 507.4375 257.730469 484.800781 240.464844 458.558594 230.324219 L 458.707031 229.601562 L 447.503906 226.316406 C 438.804688 223.785156 429.839844 222.039062 420.6875 221.109375 L 419.375 220.9375 L 419.285156 220.9375 C 414.816406 220.523438 410.152344 220.199219 405.285156 220.199219 L 404.5625 220.199219 C 399.703125 220.199219 395.03125 220.523438 390.546875 220.9375 L 390.496094 220.9375 L 389.125 221.109375 C 379.992188 222.039062 371.027344 223.785156 362.347656 226.316406 L 351.503906 229.488281 L 351.621094 230.210938 C 325.257812 240.332031 302.507812 257.652344 285.742188 279.785156 C 266.75 304.835938 255.46875 336.160156 255.507812 370.027344 C 255.46875 394.296875 259.664062 414.28125 266.214844 430.808594 C 276 455.59375 290.980469 472.34375 302.980469 485.015625 C 309 491.359375 314.28125 496.753906 317.910156 501.351562 C 321.558594 506.023438 323.320312 509.609375 323.855469 512.464844 C 326.472656 526.328125 326.742188 543.824219 326.742188 548.269531 L 326.722656 549.121094 L 326.722656 549.539062 C 326.742188 569.601562 342.976562 585.796875 362.996094 585.796875 L 446.859375 585.796875 C 466.890625 585.796875 483.109375 569.578125 483.128906 549.539062 L 483.128906 549.351562 L 483.109375 549.121094 L 483.109375 548.304688 C 483.089844 543.914062 483.375 526.363281 486.019531 512.480469 C 486.359375 510.542969 487.234375 508.359375 488.90625 505.683594 C 491.769531 500.992188 497.199219 495.117188 503.90625 488.113281 C 513.949219 477.550781 526.773438 464.21875 536.910156 445.257812 C 547.109375 426.363281 554.398438 401.898438 554.347656 370.027344 " fill-opacity="1" fill-rule="nonzero"/><path fill="#000000" d="M 545.515625 480.644531 C 538.886719 490.410156 531.84375 498.804688 525.097656 506.402344 L 554.992188 536.320312 C 561.375 542.703125 571.703125 542.703125 578.085938 536.320312 C 584.445312 529.933594 584.445312 519.582031 578.085938 513.222656 L 545.515625 480.644531 " fill-opacity="1" fill-rule="nonzero"/><g clip-path="url(#72e4a0c22c)"><path fill="#000000" d="M 633.480469 346.8125 L 575.464844 346.8125 C 576.390625 354.410156 577 362.140625 577 370.027344 C 577 373.234375 576.925781 376.371094 576.8125 379.464844 L 633.480469 379.464844 C 642.503906 379.464844 649.8125 372.152344 649.8125 363.128906 C 649.8125 354.125 642.503906 346.8125 633.480469 346.8125 " fill-opacity="1" fill-rule="nonzero"/></g></svg>