<svg xmlns="http://www.w3.org/2000/svg" xmlns:xlink="http://www.w3.org/1999/xlink" width="1080" zoomAndPan="magnify" viewBox="0 0 810 809.999993" height="1080" preserveAspectRatio="xMidYMid meet" version="1.0"><defs><clipPath id="fd1d69d14b"><path d="M 388 118.097656 L 422 118.097656 L 422 190 L 388 190 Z M 388 118.097656 " clip-rule="nonzero"/></clipPath><clipPath id="53599190de"><path d="M 160.058594 346 L 235 346 L 235 380 L 160.058594 380 Z M 160.058594 346 " clip-rule="nonzero"/></clipPath><clipPath id="bac313d87e"><path d="M 369 674 L 441 674 L 441 691.847656 L 369 691.847656 Z M 369 674 " clip-rule="nonzero"/></clipPath><clipPath id="8adf2be21a"><path d="M 575 346.746094 L 649.808594 346.746094 L 649.808594 380 L 575 380 Z M 575 346.746094 " clip-rule="nonzero"/></clipPath></defs><path fill="#c1ff00" d="M 537.007812 254.226562 L 578.195312 213.027344 C 584.558594 206.664062 584.558594 196.308594 578.195312 189.941406 C 571.808594 183.5625 561.480469 183.5625 555.09375 189.941406 L 514.480469 230.558594 C 522.6875 237.679688 530.171875 245.640625 537.007812 254.226562 " fill-opacity="1" fill-rule="nonzero"/><g clip-path="url(#fd1d69d14b)"><path fill="#c1ff00" d="M 404.992188 188.957031 C 405.140625 188.957031 405.277344 188.957031 405.445312 188.957031 C 410.824219 188.957031 416.101562 189.300781 421.328125 189.851562 L 421.328125 134.515625 C 421.328125 125.511719 414.011719 118.21875 404.992188 118.21875 C 395.96875 118.21875 388.691406 125.511719 388.691406 134.515625 L 388.691406 189.851562 C 393.894531 189.300781 399.175781 188.957031 404.53125 188.957031 C 404.683594 188.957031 404.839844 188.957031 404.992188 188.957031 " fill-opacity="1" fill-rule="nonzero"/></g><path fill="#c1ff00" d="M 272.988281 254.246094 C 279.808594 245.660156 287.269531 237.679688 295.457031 230.558594 L 254.867188 189.941406 C 248.503906 183.5625 238.152344 183.5625 231.789062 189.941406 C 225.386719 196.308594 225.386719 206.664062 231.789062 213.027344 L 272.988281 254.246094 " fill-opacity="1" fill-rule="nonzero"/><g clip-path="url(#53599190de)"><path fill="#c1ff00" d="M 232.847656 370.046875 C 232.847656 362.160156 233.496094 354.429688 234.425781 346.832031 L 176.375 346.832031 C 167.351562 346.832031 160.058594 354.144531 160.058594 363.148438 C 160.058594 372.171875 167.351562 379.484375 176.375 379.484375 L 233.058594 379.484375 C 232.964844 376.390625 232.847656 373.253906 232.847656 370.046875 " fill-opacity="1" fill-rule="nonzero"/></g><path fill="#c1ff00" d="M 231.789062 513.253906 C 225.386719 519.617188 225.386719 529.96875 231.789062 536.355469 C 238.152344 542.738281 248.503906 542.738281 254.867188 536.355469 L 284.785156 506.433594 C 278.042969 498.835938 270.992188 490.425781 264.382812 480.675781 L 231.789062 513.253906 " fill-opacity="1" fill-rule="nonzero"/><g clip-path="url(#bac313d87e)"><path fill="#c1ff00" d="M 412.285156 674.777344 L 369.449219 674.777344 C 369.429688 675.273438 369.355469 675.703125 369.355469 676.199219 C 369.355469 684.808594 382.574219 691.777344 394.828125 691.777344 L 415.152344 691.777344 C 427.40625 691.777344 440.605469 684.808594 440.605469 676.199219 C 440.605469 675.703125 440.550781 675.273438 440.550781 674.777344 L 412.285156 674.777344 " fill-opacity="1" fill-rule="nonzero"/></g><path fill="#c1ff00" d="M 446.589844 635.113281 L 363.40625 635.113281 C 354.804688 635.113281 347.832031 642.101562 347.832031 650.6875 C 347.832031 659.296875 354.804688 666.304688 363.40625 666.304688 L 446.589844 666.304688 C 455.175781 666.304688 462.148438 659.296875 462.148438 650.6875 C 462.148438 642.101562 455.175781 635.113281 446.589844 635.113281 " fill-opacity="1" fill-rule="nonzero"/><path fill="#c1ff00" d="M 446.589844 595.773438 L 363.40625 595.773438 C 354.804688 595.773438 347.832031 602.746094 347.832031 611.367188 C 347.832031 619.957031 354.804688 626.945312 363.40625 626.945312 L 446.589844 626.945312 C 455.175781 626.945312 462.148438 619.957031 462.148438 611.367188 C 462.148438 602.746094 455.175781 595.773438 446.589844 595.773438 " fill-opacity="1" fill-rule="nonzero"/><path fill="#c1ff00" d="M 396.613281 284.871094 C 377.730469 285.609375 364.867188 290.738281 355.070312 297.726562 C 345.304688 304.734375 338.445312 314.082031 333.546875 324.074219 C 323.707031 343.960938 322.871094 366.015625 322.929688 367.5 L 322.929688 367.515625 C 322.929688 376.824219 315.367188 384.386719 306.078125 384.386719 C 296.769531 384.386719 289.210938 376.824219 289.210938 367.515625 C 289.210938 366.796875 289.25 358.230469 291.488281 345.867188 C 293.75 333.515625 298.175781 317.273438 307.5625 301.261719 C 313.808594 290.625 322.359375 280.082031 333.925781 271.417969 C 349.3125 259.832031 369.960938 252.023438 395.433594 251.1875 C 404.742188 250.863281 412.546875 258.140625 412.871094 267.449219 C 413.214844 276.738281 405.941406 284.5625 396.613281 284.871094 Z M 554.449219 370.046875 C 554.46875 336.175781 543.183594 304.851562 524.210938 279.796875 C 507.527344 257.742188 484.886719 240.476562 458.636719 230.332031 L 458.785156 229.609375 L 447.578125 226.324219 C 438.878906 223.792969 429.914062 222.050781 420.757812 221.117188 L 419.445312 220.945312 L 419.351562 220.945312 C 414.886719 220.53125 410.214844 220.207031 405.351562 220.207031 L 404.628906 220.207031 C 399.765625 220.207031 395.09375 220.53125 390.609375 220.945312 L 390.554688 220.945312 L 389.1875 221.117188 C 380.046875 222.050781 371.082031 223.792969 362.402344 226.324219 L 351.550781 229.496094 L 351.671875 230.21875 C 325.300781 240.339844 302.546875 257.664062 285.773438 279.796875 C 266.777344 304.851562 255.492188 336.175781 255.53125 370.046875 C 255.492188 394.320312 259.6875 414.304688 266.246094 430.832031 C 276.027344 455.621094 291.015625 472.375 303.019531 485.046875 C 309.039062 491.390625 314.324219 496.785156 317.949219 501.382812 C 321.597656 506.054688 323.363281 509.644531 323.898438 512.496094 C 326.519531 526.363281 326.785156 543.859375 326.785156 548.304688 L 326.765625 549.15625 L 326.765625 549.574219 C 326.785156 569.636719 343.023438 585.835938 363.046875 585.835938 L 446.933594 585.835938 C 466.972656 585.835938 483.195312 569.613281 483.214844 549.574219 L 483.214844 549.386719 L 483.195312 549.15625 L 483.195312 548.339844 C 483.175781 543.949219 483.460938 526.398438 486.101562 512.511719 C 486.445312 510.574219 487.320312 508.390625 488.992188 505.714844 C 491.859375 501.023438 497.289062 495.148438 503.996094 488.144531 C 514.042969 477.582031 526.871094 464.246094 537.007812 445.285156 C 547.214844 426.386719 554.503906 401.921875 554.449219 370.046875 " fill-opacity="1" fill-rule="nonzero"/><path fill="#c1ff00" d="M 545.617188 480.675781 C 538.988281 490.441406 531.941406 498.835938 525.195312 506.433594 L 555.09375 536.355469 C 561.480469 542.738281 571.808594 542.738281 578.195312 536.355469 C 584.558594 529.96875 584.558594 519.617188 578.195312 513.253906 L 545.617188 480.675781 " fill-opacity="1" fill-rule="nonzero"/><g clip-path="url(#8adf2be21a)"><path fill="#c1ff00" d="M 633.605469 346.832031 L 575.574219 346.832031 C 576.5 354.429688 577.109375 362.160156 577.109375 370.046875 C 577.109375 373.253906 577.035156 376.390625 576.921875 379.484375 L 633.605469 379.484375 C 642.628906 379.484375 649.941406 372.171875 649.941406 363.148438 C 649.941406 354.144531 642.628906 346.832031 633.605469 346.832031 " fill-opacity="1" fill-rule="nonzero"/></g></svg>